<?xml version="1.0" standalone="no"?>
<!DOCTYPE svg PUBLIC "-//W3C//DTD SVG 1.1//EN" "http://www.w3.org/Graphics/SVG/1.1/DTD/svg11.dtd" >
<svg>
<metadata>
Created by FontForge 20090622 at Wed Nov 16 10:58:34 2016
 By deploy user
Copyright (c) 1987, 1992 Adobe Systems Incorporated.  All Rights Reserved.Eurostile is a trademark of Nebiolo.
</metadata>
<defs>
<font id="Eurostile-Demi" horiz-adv-x="705" >
  <font-face 
    font-family="Eurostile-Demi"
    font-weight="600"
    font-stretch="normal"
    units-per-em="1000"
    panose-1="2 11 7 0 0 0 0 0 0 0"
    ascent="800"
    descent="-200"
    x-height="525"
    cap-height="750"
    bbox="-60 -250 1270 993"
    underline-thickness="50"
    underline-position="-50"
    unicode-range="U+0020-U+2122"
  />
<missing-glyph horiz-adv-x="502" 
d="M-1 0h500v500h-500v-500zM9 10v480h480v-480h-480z" />
    <glyph glyph-name=".notdef" horiz-adv-x="502" 
d="M-1 0h500v500h-500v-500zM9 10v480h480v-480h-480z" />
    <glyph glyph-name="space" unicode=" " horiz-adv-x="352" 
 />
    <glyph glyph-name="exclam" unicode="!" horiz-adv-x="309" 
d="M217 137h-126v-137h126v137zM225 750h-142l8 -499h126z" />
    <glyph glyph-name="quotedbl" unicode="&#x22;" horiz-adv-x="474" 
d="M50 750v-130l42 -129h54l42 129v130h-138zM286 750v-130l42 -129h54l42 129v130h-138z" />
    <glyph glyph-name="numbersign" unicode="#" 
d="M284 750l-39 -210h-126v-115h105l-24 -133h-122v-115h100l-33 -177h93l33 177h109l-33 -177h93l33 177h127v115h-103l24 133h107v115h-89l39 210h-92l-39 -210h-109l39 210h-93zM317 425h112l-26 -133h-110z" />
    <glyph glyph-name="dollar" unicode="$" 
d="M391 321h4q42 -1 67 -3.5t43.5 -11t28.5 -27.5t10 -53q0 -36 -6.5 -57.5t-23 -34t-45.5 -17.5t-78 -5v209zM391 638q45 -1 68 -3t38 -9.5t23 -22.5t9 -42v-25h126v25q0 67 -18.5 106.5t-52 57.5t-76 23.5t-117.5 7.5v73h-80v-73q-76 0 -126 -7.5t-84.5 -30.5t-52.5 -67.5
t-18 -116.5q0 -67 18 -107t52.5 -60.5t81.5 -29.5t129 -16v-209q-51 0 -79 3t-46 13t-26 31t-8 58v27h-126v-27q0 -55 10.5 -94.5t40.5 -68.5t87 -44.5t147 -15.5v-78h80v78q78 0 131.5 11t88.5 36.5t52 70.5t17 114q0 72 -19.5 114t-56 62t-82.5 26.5t-131 10.5v199z
M311 439l-10 1q-76 5 -99 17q-18 9 -27 27.5t-9 49.5q0 38 7.5 58.5t23.5 30t40 12t72 3.5h2v-199z" />
    <glyph glyph-name="percent" unicode="%" horiz-adv-x="905" 
d="M741 750h-95l-474 -750h93zM883 240q-1 45 -10.5 71.5t-29 40.5t-49 18.5t-77.5 4.5q-47 0 -75.5 -5t-46.5 -18.5t-27 -40t-10 -72.5v-110q1 -45 10 -71.5t27 -40.5t46.5 -18.5t76.5 -4.5t77.5 5t48.5 19t28.5 40.5t10.5 71.5v110zM798 141q0 -49 -15 -60t-66 -11
q-28 0 -40.5 1.5t-20 8t-10.5 20.5t-3 41v93q0 25 3 38t10.5 19t20 7t40.5 1q30 0 44 -1t22 -7t11.5 -19t3.5 -38v-93zM347 621q-1 45 -10.5 71.5t-29 40.5t-49 18.5t-77.5 4.5q-47 0 -75.5 -5t-46.5 -18.5t-27 -40t-10 -72.5v-110q1 -45 10 -71.5t27 -40.5t46.5 -18.5
t76.5 -4.5t77.5 5t48.5 19t28.5 40.5t10.5 71.5v110zM262 522q0 -49 -15 -60t-66 -11q-28 0 -40.5 1.5t-20 8t-10.5 20.5t-3 41v93q0 25 3 38t10.5 19t20 7t40.5 1q30 0 44 -1t22 -7t11.5 -19t3.5 -38v-93z" />
    <glyph glyph-name="ampersand" unicode="&#x26;" horiz-adv-x="781" 
d="M523 157q-22 -31 -55 -38t-99 -7q-58 0 -88 2.5t-49.5 13.5t-28.5 34.5t-9 65.5q0 39 2 60t9.5 37t24.5 25.5t47 14.5zM705 0l68 83l-107 94q10 29 12.5 61t2.5 80v51h-123v-101l-238 207q-26 21 -36 39t-10 50q0 50 23 62t83 12q42 0 63 -4t31 -16t12.5 -33t2.5 -64h123
q0 78 -10 123t-35 69.5t-68.5 33.5t-118.5 9q-64 0 -107.5 -7t-73 -26.5t-45 -57.5t-15.5 -100q0 -49 12.5 -74.5t50.5 -58.5q-45 -4 -73.5 -20t-43.5 -42.5t-20.5 -61t-5.5 -80.5q0 -79 20.5 -126.5t59.5 -70.5t92.5 -30t137.5 -7q46 0 80 2t66 10t58.5 25t42.5 46z" />
    <glyph glyph-name="quotesingle" unicode="'" horiz-adv-x="238" 
d="M50 750v-130l42 -129h54l42 129v130h-138z" />
    <glyph glyph-name="parenleft" unicode="(" horiz-adv-x="348" 
d="M293 -32q-35 0 -55.5 10.5t-29.5 27.5t-11 37t-2 52v416q0 71 17 99t81 28v118q-85 0 -132.5 -19.5t-68.5 -57.5t-26.5 -89.5t-6.5 -149.5v-8v-264q0 -101 6 -156t28 -91.5t69.5 -53.5t130.5 -17v118z" />
    <glyph glyph-name="parenright" unicode=")" horiz-adv-x="348" 
d="M55 638q35 0 55.5 -10.5t29.5 -27.5t11 -37t2 -52v-416q0 -71 -17 -99t-81 -28v-118q85 0 132.5 19.5t69 57.5t26.5 89.5t6 149.5v8v264q0 101 -6 156t-28 91.5t-69.5 53.5t-130.5 17v-118z" />
    <glyph glyph-name="asterisk" unicode="*" 
d="M552 579l-25 76l-137 -49v144h-75v-144l-136 49l-26 -71l136 -51l-84 -116l60 -45l90 120l83 -120l59 45l-81 116z" />
    <glyph glyph-name="plus" unicode="+" horiz-adv-x="584" 
d="M244 525v-194h-194v-96h194v-194h96v194h194v96h-194v194h-96z" />
    <glyph glyph-name="comma" unicode="," horiz-adv-x="352" 
d="M89 -126h25q39 0 61.5 10t33 28t13.5 41.5t3 63.5v118h-126v-135h50q0 -40 -14.5 -53.5t-45.5 -13.5v-59z" />
    <glyph glyph-name="hyphen" unicode="-" horiz-adv-x="266" 
d="M0 324v-96h266v96h-266z" />
    <glyph glyph-name="period" unicode="." horiz-adv-x="352" 
d="M215 137h-126v-137h126v137z" />
    <glyph glyph-name="slash" unicode="/" horiz-adv-x="682" 
d="M687 750h-113l-579 -863h112z" />
    <glyph glyph-name="zero" unicode="0" 
d="M353 756q-99 0 -158.5 -14t-92.5 -48t-46 -92.5t-13 -157.5v-138q0 -101 17 -162t53 -93.5t93 -44.5t147 -12t147 12t93 44.5t53 93.5t17 162v136q0 101 -17 162.5t-53 94.5t-93 45t-147 12zM353 112q-61 0 -91.5 4t-49 19t-26 46.5t-7.5 90.5v205q0 59 7.5 90.5t26 47
t49.5 19.5t91 4t90.5 -4t49.5 -19t26.5 -47t7.5 -91v-205q0 -59 -7.5 -90.5t-26 -46.5t-49.5 -19t-91 -4z" />
    <glyph glyph-name="one" unicode="1" 
d="M492 750h-173l-240 -226l82 -89l195 195v-630h136v750z" />
    <glyph glyph-name="two" unicode="2" 
d="M627 118h-429v25q0 39 7 60.5t23.5 33.5t40.5 17.5t75 12.5q29 4 32 5q79 13 123.5 26.5t73 38.5t41.5 69.5t13 118.5q0 72 -17.5 118.5t-52 70.5t-83.5 33t-122 9q-101 0 -160 -16.5t-86.5 -49.5t-35.5 -80t-8 -127h136q0 60 6 90.5t22 44.5t42 17t84 3q43 0 68.5 -4
t41 -15.5t22.5 -33.5t7 -60q0 -46 -6 -70.5t-20 -37t-36.5 -18.5t-70.5 -14q-32 -5 -51 -9q-76 -12 -117 -23t-70 -33t-43.5 -64t-14.5 -113v-143h565v118z" />
    <glyph glyph-name="three" unicode="3" 
d="M59 253q0 -91 17.5 -144t52 -77.5t83 -31t131.5 -6.5q82 0 134 6.5t89 28.5t56 67t19 121q0 79 -28 119t-102 45v4q36 4 60 18.5t36.5 38t17 52.5t4.5 66q0 70 -23.5 110.5t-63 58.5t-84 22.5t-115.5 4.5q-81 0 -131 -9t-82.5 -34t-47.5 -74t-15 -130h136q0 47 5 71
t18.5 37t40 17t76.5 4q49 0 76 -2.5t43.5 -10t23.5 -23t7 -42.5q0 -71 -17 -97t-71 -26h-109v-109h109q59 0 79.5 -24.5t20.5 -86.5q0 -39 -8 -60t-26 -30.5t-45.5 -12t-82.5 -2.5t-80.5 3t-40.5 15.5t-21 40.5t-6 82h-136z" />
    <glyph glyph-name="four" unicode="4" 
d="M574 750h-212l-332 -433v-157h408v-160h136v160h88v109h-88v481zM438 269h-294l290 377h4v-377z" />
    <glyph glyph-name="five" unicode="5" 
d="M211 641h397v109h-523v-400h126q8 34 39.5 42t99.5 8q52 0 80.5 -5t43.5 -19t20.5 -42t5.5 -79t-5.5 -78.5t-20.5 -41.5t-43 -18.5t-82 -4.5q-43 0 -66.5 2t-41.5 11.5t-27.5 31t-9.5 59.5h-136q2 -72 18.5 -116t48.5 -67t80 -31t123 -8q91 0 145 9t88 36t49.5 79
t15.5 140q0 73 -11.5 121.5t-38.5 79.5t-74.5 45t-120.5 14q-29 0 -53 -2t-48.5 -8t-44.5 -19t-32 -33h-2v185z" />
    <glyph glyph-name="six" unicode="6" 
d="M347 340q53 0 79 -2.5t42 -12.5t22.5 -32t6.5 -63q0 -45 -6 -68.5t-21.5 -34t-41.5 -13t-81 -2.5q-54 0 -82.5 5t-43 18t-19.5 38.5t-5 73.5q0 35 8 54t25.5 27t42 10t74.5 2zM61 287q0 -97 13.5 -154.5t45 -87.5t84.5 -40.5t143 -10.5q85 0 138.5 10.5t86 36.5t47 74
t14.5 125q0 73 -13.5 115.5t-44 65t-79.5 30t-130 7.5q-66 0 -108.5 -14.5t-58.5 -57.5h-2v118q0 50 6 75.5t21 38.5t42 16.5t81 3.5q47 0 71.5 -2t41 -11t24 -28.5t7.5 -55.5h136q0 75 -19 119.5t-54.5 64.5t-82.5 25.5t-124 5.5q-79 0 -131.5 -10t-86.5 -37t-50.5 -76
t-17.5 -128v-218z" />
    <glyph glyph-name="seven" unicode="7" 
d="M621 750h-556v-123h419l-324 -627h155l306 612v138z" />
    <glyph glyph-name="eight" unicode="8" 
d="M353 329q56 0 85.5 -3.5t45 -14.5t21 -31.5t5.5 -58.5q0 -36 -5.5 -56t-21 -32t-46 -16.5t-84.5 -4.5q-55 0 -85 4t-45.5 15t-21 31.5t-5.5 58.5q0 36 5 56t20.5 31.5t46 16t85.5 4.5zM353 -6q82 0 133.5 7t87 29t54 68t18.5 123q0 73 -29 113.5t-99 50.5v4
q70 13 93 51.5t23 115.5q0 69 -20 110.5t-56 60.5t-83 24t-122 5q-74 0 -123.5 -7t-85 -27.5t-54 -60.5t-18.5 -105q0 -77 24.5 -114.5t96.5 -52.5v-4q-40 -5 -66 -19t-40.5 -35.5t-20.5 -48.5t-6 -61q0 -79 22 -126t61 -68.5t87 -27t123 -5.5zM353 438q-48 0 -72 2.5
t-40.5 13t-24.5 34.5t-8 68q0 30 6 46t21 23.5t41.5 10t76.5 2.5t74 -2t40 -9t23.5 -24t7.5 -47q0 -43 -7 -66.5t-23 -34.5t-41 -14t-74 -3z" />
    <glyph glyph-name="nine" unicode="9" 
d="M351 638q49 0 76 -3t45 -14.5t26.5 -35t8.5 -65.5q0 -39 -6 -60.5t-22.5 -32t-45 -13.5t-82.5 -3q-53 0 -81 3.5t-43 14.5t-20 31.5t-5 59.5q0 43 5 65.5t20 34t42.5 15t81.5 3.5zM60 210q0 -76 21.5 -121t59.5 -65t85 -25t125 -5q74 0 126 9t89.5 33t57 68.5t19.5 113.5
v217q0 103 -11.5 163t-42 95t-86.5 49t-152 14q-88 0 -142.5 -11t-85.5 -37t-44 -70.5t-13 -117.5q0 -74 16.5 -119.5t48 -69t76 -31t111.5 -7.5q77 0 120.5 15t66.5 58h2v-124q0 -48 -8 -74t-25 -38t-43.5 -15t-79.5 -3q-54 0 -80 2t-43 10.5t-24.5 28.5t-7.5 57h-136z" />
    <glyph glyph-name="colon" unicode=":" horiz-adv-x="352" 
d="M215 137h-126v-137h126v137zM215 525h-126v-137h126v137z" />
    <glyph glyph-name="semicolon" unicode=";" horiz-adv-x="352" 
d="M89 -126h25q39 0 61.5 10t33 28t13.5 41.5t3 63.5v118h-126v-135h50q0 -40 -14.5 -53.5t-45.5 -13.5v-59zM225 525h-126v-137h126v137z" />
    <glyph glyph-name="less" unicode="&#x3c;" horiz-adv-x="584" 
d="M50 248l484 -207v100l-348 142l348 142v100l-484 -207v-70z" />
    <glyph glyph-name="equal" unicode="=" horiz-adv-x="584" 
d="M50 333h484v96h-484v-96zM50 138h484v96h-484v-96z" />
    <glyph glyph-name="greater" unicode="&#x3e;" horiz-adv-x="584" 
d="M534 318l-484 207v-100l348 -142l-348 -142v-100l484 207v70z" />
    <glyph glyph-name="question" unicode="?" horiz-adv-x="595" 
d="M328 239v17q0 40 15 55.5t55 31.5l13 5q43 18 69 35.5t40 39t19 50t5 71.5q0 67 -15.5 109t-45.5 64t-72 30t-103 8q-76 0 -123.5 -8t-76.5 -30t-42.5 -62t-13.5 -106v-27h126v27q0 34 6 54t20 30t36.5 13.5t62.5 3.5q37 0 58 -3.5t33.5 -13.5t18 -31t5.5 -58
q0 -51 -17.5 -70t-64.5 -38l-24 -10q-37 -16 -58 -29.5t-32 -30.5t-15.5 -42.5t-4.5 -67.5v-17h126zM328 137h-126v-137h126v137z" />
    <glyph glyph-name="at" unicode="@" horiz-adv-x="975" 
d="M622 551l-12 -51h-2q-10 27 -38 46t-57 19q-43 0 -84 -23t-73.5 -60.5t-51 -82.5t-18.5 -87q0 -29 11 -56.5t31 -49t46.5 -33.5t56.5 -12t58 12t70 46q19 -32 42.5 -45t61.5 -13q49 0 90 23t71 62.5t45.5 86.5t15.5 93q0 71 -30 132t-82.5 105.5t-119 68.5t-136.5 24
q-86 0 -164 -34.5t-137 -94.5t-92.5 -136.5t-33.5 -157.5q0 -80 34 -144t91.5 -107.5t128 -65.5t143.5 -22q55 0 108 9t93 30l-30 75q-36 -16 -81 -23t-90 -7q-59 0 -113.5 20t-97 56.5t-66.5 87t-24 108.5q0 53 23.5 109.5t68 105t106 78t133.5 29.5q58 0 109 -21t89.5 -57
t59.5 -81t21 -91q0 -23 -9.5 -54.5t-26 -61t-40 -49t-50.5 -19.5q-22 0 -32.5 10.5t-10.5 28.5v6q1 5 1 7l72 261h-78zM498 488q36 0 56.5 -17.5t20.5 -51.5q0 -26 -8 -57.5t-23.5 -60t-39 -46t-52.5 -17.5q-38 0 -54 24t-16 66q0 37 11.5 67.5t30 51t38.5 31t36 10.5z" />
    <glyph glyph-name="A" unicode="A" horiz-adv-x="709" 
d="M517 142l49 -142h146l-254 750h-212l-249 -750h149l47 142h324zM485 251h-259l128 389h2z" />
    <glyph glyph-name="B" unicode="B" horiz-adv-x="716" 
d="M208 327h221q63 0 83 -21.5t20 -84.5q0 -64 -27.5 -81t-99.5 -17h-197v204zM450 0q62 0 104 9.5t69 33t40 64t13 102.5q0 80 -26 124t-99 52v4q64 15 85.5 54.5t21.5 111.5q0 61 -13.5 99.5t-41 59t-67.5 28.5t-99 8h-373v-750h386zM208 627h203q59 0 81 -15t22 -71
q0 -61 -19.5 -83t-79.5 -22h-207v191z" />
    <glyph glyph-name="C" unicode="C" horiz-adv-x="696" 
d="M655 499v41q-4 79 -25 123.5t-58 64t-84.5 24t-136.5 4.5q-87 0 -145 -13t-95.5 -44.5t-55.5 -89t-18 -147.5v-172q1 -84 12.5 -138t40.5 -89.5t83 -52.5t139 -17q6 0 19 1h20q13 0 29 1q81 3 126 9.5t81 27t56 66t20 122.5v49h-144v-41q0 -40 -9.5 -62.5t-29.5 -32.5
t-48.5 -13t-80.5 -3q-59 0 -91.5 7t-49.5 26t-22.5 52t-6.5 94v166q0 58 6.5 90.5t24 50t49.5 24t90 6.5q53 0 81.5 -2.5t46 -11.5t25 -27.5t7.5 -51.5v-41h144z" />
    <glyph glyph-name="D" unicode="D" horiz-adv-x="754" 
d="M62 0h382q82 0 136 23t83 63.5t40.5 91.5t11.5 116v177q0 152 -69 215.5t-226 63.5h-358v-750zM206 123v504h214q85 0 118 -32t33 -124v-177q0 -33 -6.5 -63.5t-21.5 -54.5t-39.5 -38.5t-59.5 -14.5h-238z" />
    <glyph glyph-name="E" unicode="E" horiz-adv-x="619" 
d="M200 627h370v123h-514v-750h517v123h-373v199h351v118h-351v187z" />
    <glyph glyph-name="F" unicode="F" horiz-adv-x="582" 
d="M202 627h352v123h-496v-750h144v310h334v118h-334v199z" />
    <glyph glyph-name="G" unicode="G" horiz-adv-x="727" 
d="M354 398v-109h189v-27q0 -54 -8.5 -83t-28.5 -42t-50.5 -16.5t-91.5 -3.5q-65 0 -99.5 5.5t-53 22.5t-25.5 50t-8 95v172q1 60 7 91.5t24 49t53.5 24t101.5 6.5q59 0 88.5 -2.5t50 -12t30.5 -32t10 -62.5h143q0 82 -21.5 129.5t-62.5 69.5t-94.5 27.5t-143.5 5.5
q-93 0 -153.5 -11.5t-99.5 -42.5t-58 -89t-19 -151v-172q0 -96 18 -154t56 -88.5t99 -42t157 -11.5q104 0 165.5 11t96 39.5t48 79.5t13.5 138v136h-333z" />
    <glyph glyph-name="H" unicode="H" horiz-adv-x="769" 
d="M703 750h-144v-307h-349v307h-144v-750h144v320h349v-320h144v750z" />
    <glyph glyph-name="I" unicode="I" horiz-adv-x="276" 
d="M210 750h-144v-750h144v750z" />
    <glyph glyph-name="J" unicode="J" horiz-adv-x="583" 
d="M380 750v-519q0 -37 -3.5 -58.5t-13.5 -33.5t-29.5 -17t-52.5 -5q-43 0 -65.5 5.5t-32.5 18t-12.5 33t-2.5 64.5v56h-138v-108q0 -63 17 -101.5t49 -58t75.5 -26t109.5 -6.5q69 0 113.5 10t73 35.5t42.5 71.5t14 120v519h-144z" />
    <glyph glyph-name="K" unicode="K" horiz-adv-x="715" 
d="M210 750h-144v-750h144v321h67l276 -321h182l-335 384l304 366h-177l-250 -306h-67v306z" />
    <glyph glyph-name="L" unicode="L" horiz-adv-x="565" 
d="M210 750h-144v-750h494v123h-350v627z" />
    <glyph glyph-name="M" unicode="M" horiz-adv-x="1007" 
d="M804 632h5l-12 -632h144v750h-236l-200 -557h-4l-204 557h-231v-750h144l-12 629h3l238 -629h129z" />
    <glyph glyph-name="N" unicode="N" horiz-adv-x="827" 
d="M629 123h-4l-321 627h-238v-750h144l-12 627h5l319 -627h239v750h-144z" />
    <glyph glyph-name="O" unicode="O" horiz-adv-x="715" 
d="M356 756q-95 0 -153.5 -10.5t-95 -39.5t-52.5 -82.5t-16 -141.5v-202q0 -93 17 -149t53.5 -85.5t95 -40.5t151.5 -11q91 0 149.5 11.5t96.5 42t56 86.5t18 146v202q0 89 -19.5 143.5t-58 82.5t-96 38t-146.5 10zM356 633q53 0 84 -4t51.5 -18.5t30.5 -45t10 -83.5v-202
q0 -55 -9 -87t-29 -48.5t-52.5 -22t-85.5 -5.5q-59 0 -91 5t-50 21t-25 47.5t-7 89.5v202q1 49 7 76.5t23 44t50.5 23.5t92.5 7z" />
    <glyph glyph-name="P" unicode="P" horiz-adv-x="686" 
d="M56 0h144v243h188q79 0 128 10t80 36t45 74.5t14 128.5t-13.5 129.5t-44 77.5t-80.5 39.5t-129 11.5h-332v-750zM200 366v261h188q41 0 65.5 -6.5t36.5 -21.5t16.5 -40t4.5 -67q0 -41 -5 -64.5t-18 -37t-36.5 -18.5t-63.5 -6h-188z" />
    <glyph glyph-name="Q" unicode="Q" horiz-adv-x="766" 
d="M774 101l-73 49q5 15 7.5 33.5t4 39.5t2 34t0.5 23v202q0 95 -26 151.5t-70.5 82.5t-98.5 33t-137 7q-90 0 -150 -10.5t-100 -39.5t-60.5 -83t-20.5 -141v-202q3 -93 22 -149t58 -86t98 -40.5t153 -10.5q47 0 81 2t67.5 8.5t64.5 21t55 39.5l65 -49zM407 352l-59 -85
l184 -119q-24 -20 -57 -25.5t-92 -5.5q-63 0 -95.5 4.5t-53 19.5t-29.5 47.5t-9 91.5v202q0 52 11 83t33.5 45.5t55 18.5t87.5 4q59 0 93 -5t55 -20t30.5 -44.5t9.5 -81.5v-132q0 -23 -2 -64q-2 -33 -2 -43z" />
    <glyph glyph-name="R" unicode="R" horiz-adv-x="722" 
d="M426 248q50 -1 72.5 -29.5t22.5 -78.5v-140h144v140q0 84 -27 124t-100 46v4q46 7 73.5 25t40 44.5t16 59t3.5 82.5q0 64 -12.5 106.5t-39.5 68t-69 37t-106 13.5h-383v-750h144v248h221zM205 371v256h200q40 0 63.5 -5t36 -18t17.5 -36.5t5 -65.5q0 -43 -6 -68
t-20 -38.5t-39 -19t-67 -5.5h-190z" />
    <glyph glyph-name="S" unicode="S" horiz-adv-x="673" 
d="M33 239v-35q0 -74 23 -117.5t64 -63t93 -24.5t134 -5q83 0 134 7t87 29.5t54 68.5t18 124q0 72 -13.5 113t-45.5 61.5t-83.5 28.5t-151.5 14q-63 4 -92 8t-45.5 13.5t-22 28t-5.5 54.5q0 32 6 49.5t23.5 27.5t48.5 13.5t88 3.5q44 0 67 -2t38.5 -10t22 -24.5t6.5 -47.5
v-24h144v24q0 71 -21 112.5t-58 61t-82 24t-117 4.5q-83 0 -134 -5t-91.5 -25t-62.5 -63.5t-22 -118.5q0 -74 19.5 -118t53.5 -64.5t76 -27t114 -10.5q19 -1 27 -2q13 -1 41 -2q74 -2 101 -17.5t27 -79.5q0 -35 -5 -55.5t-20.5 -33t-44.5 -17.5t-79 -5q-56 0 -86.5 2.5
t-49 11.5t-26.5 27t-8 51v35h-144z" />
    <glyph glyph-name="T" unicode="T" horiz-adv-x="587" 
d="M366 627h220v123h-584v-123h220v-627h144v627z" />
    <glyph glyph-name="U" unicode="U" horiz-adv-x="754" 
d="M545 750v-533q0 -31 -8 -50t-26.5 -30t-50.5 -15.5t-84 -4.5q-53 0 -85.5 5t-50 16t-24.5 30t-7 49v533h-144v-533q0 -76 23 -121.5t64 -67t93 -28t131 -6.5q81 0 134 6.5t93.5 28t63 67t22.5 121.5v533h-144z" />
    <glyph glyph-name="V" unicode="V" horiz-adv-x="677" 
d="M539 750l-200 -630h-3l-200 630h-147l240 -750h217l242 750h-149z" />
    <glyph glyph-name="W" unicode="W" horiz-adv-x="1113" 
d="M810 118h-3l-168 632h-166l-172 -632h-4l-156 632h-144l195 -750h206l155 572h4l150 -572h208l202 750h-145z" />
    <glyph glyph-name="X" unicode="X" horiz-adv-x="693" 
d="M687 750h-165l-173 -298l-174 298h-168l229 -363l-247 -387h170l190 317l189 -317h166l-240 387z" />
    <glyph glyph-name="Y" unicode="Y" horiz-adv-x="670" 
d="M681 750h-166l-181 -320h-3l-178 320h-164l271 -462v-288h144v288z" />
    <glyph glyph-name="Z" unicode="Z" horiz-adv-x="648" 
d="M618 750h-575v-123h394v-4l-412 -501v-122h598v123h-420v3l415 501v123z" />
    <glyph glyph-name="bracketleft" unicode="[" horiz-adv-x="348" 
d="M59 756v-906h232v109h-96v688h96v109h-232z" />
    <glyph glyph-name="backslash" unicode="\" horiz-adv-x="278" 
d="M216 -113h112l-265 863h-113z" />
    <glyph glyph-name="bracketright" unicode="]" horiz-adv-x="348" 
d="M289 -150v906h-232v-109h96v-688h-96v-109h232z" />
    <glyph glyph-name="asciicircum" unicode="^" horiz-adv-x="584" 
d="M257 750l-207 -485h100l142 349l142 -349h100l-207 485h-70z" />
    <glyph glyph-name="underscore" unicode="_" horiz-adv-x="500" 
d="M500 -75h-500v-50h500v50z" />
    <glyph glyph-name="grave" unicode="`" horiz-adv-x="371" 
d="M120 743l-45 -82l194 -86l27 52z" />
    <glyph glyph-name="a" unicode="a" horiz-adv-x="589" 
d="M284 236q29 0 48 -1.5t34.5 -9t24.5 -23t9 -41.5q0 -51 -28 -66t-88 -15q-68 0 -91.5 14t-23.5 67q0 27 8.5 42.5t23.5 22.5t33.5 8.5t49.5 1.5zM400 0h126v329q0 66 -13.5 106t-41.5 60.5t-71 28t-112 7.5q-55 0 -92 -4t-67.5 -19t-48 -48t-17.5 -88h126q0 46 24.5 59.5
t74.5 13.5q39 0 61.5 -6t33.5 -19t14 -33.5t3 -56.5v-68h-4q-20 40 -57 50t-100 10q-102 0 -149 -35t-47 -126q0 -52 13.5 -85t39 -51t60.5 -24.5t83 -6.5q30 0 52.5 2t44.5 8.5t39.5 21.5t26.5 40h3z" />
    <glyph glyph-name="b" unicode="b" horiz-adv-x="594" 
d="M310 435q34 0 55 -6.5t33.5 -23t18 -47t5.5 -80.5q0 -58 -2.5 -89t-13 -53.5t-33.5 -34t-63 -11.5q-45 0 -71 11t-37.5 33t-14.5 54t-3 90q0 89 24 123t102 34zM58 0h126l-5 79h4q23 -49 63 -67t101 -18q70 0 111.5 21t60.5 58t24 84t5 121q0 65 -7 109.5t-27.5 76.5
t-60.5 49.5t-106 17.5q-57 0 -98 -16t-60 -60h-5v295h-126v-750z" />
    <glyph glyph-name="c" unicode="c" horiz-adv-x="551" 
d="M394 200q0 -38 -3.5 -58t-14.5 -31.5t-33 -16t-62 -4.5q-41 0 -62.5 8t-31.5 27t-12.5 48t-2.5 89q0 62 2.5 90.5t12 47.5t31.5 27t63 8q68 0 90.5 -17.5t22.5 -76.5h126q0 61 -15 99t-44.5 57.5t-72.5 26.5t-107 7q-76 0 -123 -16t-71 -48.5t-32.5 -80.5t-8.5 -124
q0 -83 10 -133.5t35 -80t70.5 -42t119.5 -12.5q70 0 114.5 8.5t72 30.5t40 62t12.5 105h-126z" />
    <glyph glyph-name="d" unicode="d" horiz-adv-x="593" 
d="M279 435q41 0 65.5 -9t37 -27t17 -46.5t4.5 -74.5q0 -59 -3 -91t-14.5 -54t-36.5 -32.5t-70 -10.5q-40 0 -63 11.5t-33.5 34t-13 53.5t-2.5 89q0 50 5.5 80.5t18 47t33.5 23t55 6.5zM405 0h126v750h-126v-295h-5q-18 44 -59.5 60t-98.5 16q-65 0 -105.5 -17.5t-61 -49.5
t-27.5 -76.5t-7 -109.5q0 -74 5 -121t24 -84t60.5 -58t111.5 -21q61 0 101.5 18t62.5 67h4z" />
    <glyph glyph-name="e" unicode="e" horiz-adv-x="570" 
d="M403 167q0 -52 -27 -64.5t-92 -12.5q-42 0 -65.5 7.5t-34.5 24t-13.5 42t-2.5 75.5h361q0 93 -8.5 147t-33.5 86t-72.5 45.5t-130.5 13.5q-79 0 -127 -15.5t-72.5 -48t-33.5 -81t-9 -125.5q0 -80 10 -130t36 -80t73 -43.5t123 -13.5q67 0 108.5 4.5t72.5 21t47.5 52
t16.5 95.5h-126zM168 319q0 40 3.5 60.5t14 33t33.5 17.5t65 5q43 0 64.5 -3t33.5 -14.5t16.5 -33.5t4.5 -65h-235z" />
    <glyph glyph-name="f" unicode="f" horiz-adv-x="348" 
d="M342 525h-128v32q0 55 13.5 76t72.5 21h38v96h-82q-100 0 -134 -40t-34 -139v-46h-74v-96h74v-429h126v429h128v96z" />
    <glyph glyph-name="g" unicode="g" horiz-adv-x="594" 
d="M280 435q78 0 102 -34t24 -123q0 -59 -2.5 -89.5t-14 -53t-37.5 -34t-72 -11.5q-41 0 -64 12t-33 35.5t-12.5 54t-2.5 86.5q0 50 5.5 80.5t18 47t33.5 23t55 6.5zM410 -25q0 -35 -5.5 -56.5t-19.5 -33.5t-39 -17t-66 -5q-56 0 -77 15.5t-21 67.5h-118v-9v-9
q0 -51 15.5 -83t44.5 -49t67 -23t89 -6q75 0 122.5 10.5t76 36t41 70.5t12.5 117v524h-126l5 -79h-4q-22 49 -62.5 67t-101.5 18q-70 0 -111.5 -20.5t-60.5 -58t-24 -84.5t-5 -121q0 -65 7 -109.5t27.5 -76.5t61 -49.5t105.5 -17.5q57 0 99 17t65 64h3v-100z" />
    <glyph glyph-name="h" unicode="h" horiz-adv-x="598" 
d="M188 750h-126v-750h126v289q0 78 24 112t101 34q59 0 78.5 -21.5t19.5 -80.5v-333h126v346q0 99 -39.5 142t-140.5 43q-66 0 -106 -16t-59 -69h-4v304z" />
    <glyph glyph-name="i" unicode="i" horiz-adv-x="236" 
d="M181 525h-126v-525h126v525zM181 750h-126v-107h126v107z" />
    <glyph glyph-name="j" unicode="j" horiz-adv-x="225" 
d="M176 525h-126v-549q0 -33 -11.5 -48.5t-50.5 -15.5v-90q24 -6 47 -6q42 0 69.5 12t43.5 34.5t22 53.5t6 72v537zM176 750h-126v-107h126v107z" />
    <glyph glyph-name="k" unicode="k" horiz-adv-x="539" 
d="M187 750h-126v-750h126v235h31l175 -235h152l-224 278l186 247h-142l-147 -204h-31v429z" />
    <glyph glyph-name="l" unicode="l" horiz-adv-x="252" 
d="M189 750h-126v-750h126v750z" />
    <glyph glyph-name="m" unicode="m" horiz-adv-x="924" 
d="M63 525v-525h126v296q0 75 25 107t97 32q50 0 68 -20t20 -72v-343h126v296q0 75 25 107t97 32q50 0 68 -20t20 -72v-343h126v355q0 98 -40 137t-141 39q-60 0 -104.5 -21t-61.5 -72h-4q-5 27 -20 45.5t-37 29t-46.5 14.5t-52.5 4q-58 0 -102 -18t-63 -64h-4v76h-122z" />
    <glyph glyph-name="n" unicode="n" horiz-adv-x="598" 
d="M62 525v-525h126v289q0 78 24 112t101 34q59 0 78.5 -21.5t19.5 -80.5v-333h126v346q0 99 -39.5 142t-140.5 43q-66 0 -106 -16t-59 -69h-4v79h-126z" />
    <glyph glyph-name="o" unicode="o" horiz-adv-x="582" 
d="M291 531q-83 0 -131.5 -13.5t-73.5 -44t-33.5 -79.5t-8.5 -132q0 -82 8.5 -131.5t33.5 -79.5t73.5 -43.5t131.5 -13.5t131.5 13.5t73.5 43.5t33.5 79.5t8.5 131.5q0 83 -8.5 132t-33.5 79.5t-73.5 44t-131.5 13.5zM291 435q43 0 66.5 -7.5t35.5 -26t15.5 -49.5t3.5 -91
q0 -59 -3.5 -89.5t-15 -48.5t-35.5 -25.5t-67 -7.5t-66.5 7.5t-35.5 25.5t-15.5 48.5t-3.5 89.5q0 60 3.5 91t15 49.5t35.5 26t67 7.5z" />
    <glyph glyph-name="p" unicode="p" horiz-adv-x="596" 
d="M312 90q-78 0 -102 34t-24 123q0 59 3 90.5t14.5 53.5t37.5 33t71 11q40 0 63 -11.5t33.5 -34t13 -53.5t2.5 -89q0 -50 -5.5 -80.5t-17.5 -47t-33.5 -23t-55.5 -6.5zM186 525h-126v-752h126v297h5q19 -44 60 -60t98 -16q66 0 106 17.5t60.5 49.5t27.5 76.5t7 109.5
q0 74 -5 121t-24 84.5t-60.5 58t-111.5 20.5q-61 0 -101 -18t-63 -67h-4z" />
    <glyph glyph-name="q" unicode="q" horiz-adv-x="597" 
d="M283 435q78 0 102 -34t24 -123q0 -58 -3 -90t-14.5 -54t-37 -33t-71.5 -11q-40 0 -63 11.5t-33.5 34t-13 53.5t-2.5 89q0 50 5.5 80.5t18 47t33.5 23t55 6.5zM535 525h-126l5 -79h-4q-22 49 -62.5 67t-101.5 18q-70 0 -111.5 -20.5t-60.5 -58t-24 -84.5t-5 -121
q0 -65 7 -109.5t27.5 -76.5t61 -49.5t105.5 -17.5q57 0 98.5 16t59.5 60h5v-297h126v752z" />
    <glyph glyph-name="r" unicode="r" horiz-adv-x="471" 
d="M53 525v-525h126v324q0 56 21.5 83.5t73.5 27.5q41 0 52.5 -19.5t11.5 -64.5v-27h118v42q0 81 -30 123t-108 42q-50 0 -86 -17t-54 -58h-5l3 69h-123z" />
    <glyph glyph-name="s" unicode="s" horiz-adv-x="557" 
d="M507 382q0 52 -19.5 83t-52 45t-67.5 17.5t-87 3.5q-63 0 -102 -3.5t-70.5 -17t-49 -44t-17.5 -82.5q0 -53 9 -83.5t32.5 -47.5t66.5 -24t120 -8q48 -1 74 -5.5t38 -13t15 -20t3 -32.5q0 -47 -25 -58.5t-94 -11.5q-37 0 -58 3t-32.5 11.5t-16.5 24.5t-6 46h-126
q0 -62 16.5 -97.5t47 -51t69 -19t106.5 -3.5q59 0 100.5 5t74.5 21t51.5 47.5t18.5 82.5q0 57 -15.5 90.5t-43 49t-60 20t-88.5 6.5l-27 1q-46 2 -68.5 4.5t-35 7.5t-16.5 16t-4 31q0 47 25.5 58t87.5 11q59 0 79.5 -10t20.5 -53h126z" />
    <glyph glyph-name="t" unicode="t" horiz-adv-x="425" 
d="M-2 429h66v-270q0 -51 9 -82.5t29 -49.5t54 -25.5t88 -7.5q51 0 84 10t53 33.5t28.5 63t8.5 100.5h-111q0 -62 -11.5 -86.5t-51.5 -24.5q-36 0 -44.5 14t-9.5 55v1v269h201v96h-201v119h-126v-119h-66v-96z" />
    <glyph glyph-name="u" unicode="u" horiz-adv-x="593" 
d="M530 0v525h-126v-303q0 -70 -28.5 -101t-99.5 -31q-57 0 -72.5 21.5t-15.5 82.5v331h-126v-380q1 -82 46.5 -116.5t129.5 -34.5q61 0 103.5 19t62.5 68h4v-81h122z" />
    <glyph glyph-name="v" unicode="v" horiz-adv-x="491" 
d="M497 525h-132l-115 -439h-3l-123 439h-129l159 -525h190z" />
    <glyph glyph-name="w" unicode="w" horiz-adv-x="796" 
d="M794 525h-122l-90 -439h-4l-101 439h-157l-102 -439h-3l-89 439h-124l119 -525h183l93 422h3l94 -422h180z" />
    <glyph glyph-name="x" unicode="x" horiz-adv-x="500" 
d="M487 525h-146l-91 -168l-91 168h-144l153 -249l-173 -276h150l105 192l106 -192h148l-170 276z" />
    <glyph glyph-name="y" unicode="y" horiz-adv-x="485" 
d="M490 525h-128l-102 -447h-2l-133 447h-130l173 -525h61l-1 -4q-5 -32 -10.5 -52t-16 -39t-28.5 -30.5t-46 -11.5q-6 0 -18 2l-9 1v-95q7 0 22 -2q21 -2 32 -2q53 0 87.5 15.5t55 43.5t32 62t25.5 91z" />
    <glyph glyph-name="z" unicode="z" horiz-adv-x="475" 
d="M452 420v105h-407v-96h258l-280 -321v-108h429v96h-283z" />
    <glyph glyph-name="braceleft" unicode="{" horiz-adv-x="389" 
d="M37 260q13 0 26 -1.5t26 -6.5t21.5 -16t8.5 -30v-223q0 -33 12 -58t30 -41.5t37 -25t34 -8.5h96v96h-37q-30 0 -38 13t-8 38v207q-1 33 -11 53.5t-24.5 30.5t-29 13t-31.5 5v0v2q14 1 29.5 6t30.5 15t25 28.5t11 44.5v207q0 25 8 38t38 13h37v96h-96q-15 0 -34 -8.5
t-37 -25t-30 -41.5t-12 -58v-223q0 -15 -9 -24.5t-22.5 -13.5t-25.5 -5t-25 -1v-96z" />
    <glyph glyph-name="bar" unicode="|" horiz-adv-x="280" 
d="M188 750h-96v-1000h96v1000z" />
    <glyph glyph-name="braceright" unicode="}" horiz-adv-x="389" 
d="M352 346q-13 0 -26 1.5t-25.5 6.5t-21.5 16t-9 30v223q0 33 -11.5 58t-30 41.5t-37.5 25t-34 8.5h-96v-96h37q31 0 38.5 -13t7.5 -38v-207q1 -33 11 -53.5t24.5 -30.5t29 -13t31.5 -5v0v-2q-14 -1 -29.5 -6t-30.5 -15t-25 -28.5t-11 -44.5v-207q0 -25 -7.5 -38t-38.5 -13
h-37v-96h96q15 0 34 8.5t37.5 25t30 41.5t11.5 58v223q0 15 9 24.5t22.5 13.5t25.5 5t25 1v96z" />
    <glyph glyph-name="asciitilde" unicode="~" horiz-adv-x="584" 
d="M451 345q0 -26 -9.5 -44.5t-33.5 -18.5q-27 0 -59 19l-106 59q-31 17 -55 17q-30 0 -56 -13t-45 -37q-37 -46 -37 -108h83q3 26 12 45.5t28 19.5t46 -14l119 -60q42 -21 79 -21q25 0 46.5 14t37.5 37t24.5 50.5t8.5 54.5h-83z" />
    <glyph glyph-name="quotesinglbase" unicode="&#x201a;" horiz-adv-x="252" 
d="M46 -126h25q39 0 61.5 10t33 28t13.5 41.5t3 63.5v118h-126v-135h50q0 -40 -14.5 -53.5t-45.5 -13.5v-59z" />
    <glyph glyph-name="florin" unicode="&#x192;" 
d="M627 756q-84 0 -128 -4.5t-75 -21.5t-49.5 -54.5t-30.5 -106.5l-15 -83h-90l-16 -96h90l-78 -438q-7 -37 -13 -53.5t-18.5 -24t-34.5 -9.5t-74 -2l-17 -96q83 0 125.5 3t75 17.5t53 47.5t31.5 93l82 462h118l16 96h-118l15 83q6 34 15 52.5t23.5 26.5t34.5 10t61 2z" />
    <glyph glyph-name="quotedblbase" unicode="&#x201e;" horiz-adv-x="424" 
d="M46 -126h25q39 0 61.5 10t33 28t13.5 41.5t3 63.5v118h-126v-135h50q0 -40 -14.5 -53.5t-45.5 -13.5v-59zM237 -126h25q39 0 61.5 10t33 28t13.5 41.5t3 63.5v118h-126v-135h50q0 -40 -14.5 -53.5t-45.5 -13.5v-59z" />
    <glyph glyph-name="ellipsis" unicode="&#x2026;" horiz-adv-x="1000" 
d="M230 137h-126v-137h126v137zM563 137h-126v-137h126v137zM896 137h-126v-137h126v137z" />
    <glyph glyph-name="dagger" unicode="&#x2020;" 
d="M420 750h-136v-221h-192v-109h192v-647h136v647h193v109h-193v221z" />
    <glyph glyph-name="daggerdbl" unicode="&#x2021;" 
d="M420 750h-136v-236h-192v-109h192v-276h-192v-109h192v-247h136v247h193v109h-193v276h193v109h-193v236z" />
    <glyph glyph-name="circumflex" unicode="&#x2c6;" horiz-adv-x="506" 
d="M253 742l-178 -108l24 -50l154 63l153 -63l25 50z" />
    <glyph glyph-name="perthousand" unicode="&#x2030;" horiz-adv-x="1292" 
d="M1270 240q-1 45 -10.5 71.5t-29 40.5t-49 18.5t-77.5 4.5q-47 0 -75.5 -5t-46.5 -18.5t-27 -40t-10 -72.5v-110q1 -45 10 -71.5t27 -40.5t46.5 -18.5t76.5 -4.5t77.5 5t48.5 19t28.5 40.5t10.5 71.5v110zM1185 141q0 -49 -15 -60t-66 -11q-28 0 -40.5 1.5t-20 8
t-10.5 20.5t-3 41v93q0 25 3 38t10.5 19t20 7t40.5 1q30 0 44 -1t22 -7t11.5 -19t3.5 -38v-93zM741 750h-95l-474 -750h93zM883 240q-1 45 -10.5 71.5t-29 40.5t-49 18.5t-77.5 4.5q-47 0 -75.5 -5t-46.5 -18.5t-27 -40t-10 -72.5v-110q1 -45 10 -71.5t27 -40.5t46.5 -18.5
t76.5 -4.5t77.5 5t48.5 19t28.5 40.5t10.5 71.5v110zM798 141q0 -49 -15 -60t-66 -11q-28 0 -40.5 1.5t-20 8t-10.5 20.5t-3 41v93q0 25 3 38t10.5 19t20 7t40.5 1q30 0 44 -1t22 -7t11.5 -19t3.5 -38v-93zM347 621q-1 45 -10.5 71.5t-29 40.5t-49 18.5t-77.5 4.5
q-47 0 -75.5 -5t-46.5 -18.5t-27 -40t-10 -72.5v-110q1 -45 10 -71.5t27 -40.5t46.5 -18.5t76.5 -4.5t77.5 5t48.5 19t28.5 40.5t10.5 71.5v110zM262 522q0 -49 -15 -60t-66 -11q-28 0 -40.5 1.5t-20 8t-10.5 20.5t-3 41v93q0 25 3 38t10.5 19t20 7t40.5 1q30 0 44 -1t22 -7
t11.5 -19t3.5 -38v-93z" />
    <glyph glyph-name="Scaron" unicode="&#x160;" horiz-adv-x="673" 
d="M337 809l178 108l-25 50l-153 -63l-154 63l-24 -50zM33 239v-35q0 -74 23 -117.5t64 -63t93 -24.5t134 -5q83 0 134 7t87 29.5t54 68.5t18 124q0 72 -13.5 113t-45.5 61.5t-83.5 28.5t-151.5 14q-63 4 -92 8t-45.5 13.5t-22 28t-5.5 54.5q0 32 6 49.5t23.5 27.5
t48.5 13.5t88 3.5q44 0 67 -2t38.5 -10t22 -24.5t6.5 -47.5v-24h144v24q0 71 -21 112.5t-58 61t-82 24t-117 4.5q-83 0 -134 -5t-91.5 -25t-62.5 -63.5t-22 -118.5q0 -74 19.5 -118t53.5 -64.5t76 -27t114 -10.5q19 -1 27 -2q13 -1 41 -2q74 -2 101 -17.5t27 -79.5
q0 -35 -5 -55.5t-20.5 -33t-44.5 -17.5t-79 -5q-56 0 -86.5 2.5t-49 11.5t-26.5 27t-8 51v35h-144z" />
    <glyph glyph-name="guilsinglleft" unicode="&#x2039;" horiz-adv-x="325" 
d="M182 539l-131 -264l142 -262l81 51l-113 211l106 216z" />
    <glyph glyph-name="OE" unicode="&#x152;" horiz-adv-x="1105" 
d="M363 117q-66 0 -99 5t-50.5 21.5t-24 49.5t-6.5 97v202q0 43 6 68t24 41.5t53.5 24t96.5 7.5q67 0 103 -6t55.5 -22.5t26.5 -49.5t7 -93v-174q0 -59 -7 -91t-26.5 -49.5t-55.5 -24t-103 -6.5zM699 627h366v123h-501l3 -85h-3q-13 32 -38.5 51t-56.5 27.5t-60 10.5t-66 2
q-162 0 -233 -58.5t-71 -205.5v-202q0 -87 14.5 -143t48 -89.5t92 -48.5t149.5 -15q84 0 136.5 16.5t84.5 70.5h3l-3 -81h504v123h-369v203h347v109h-347v192z" />
    <glyph glyph-name="quoteleft" unicode="&#x2018;" horiz-adv-x="232" 
d="M184 756h-25q-39 0 -61.5 -10t-33 -28t-13.5 -41.5t-3 -63.5v-118h126v135h-50q0 40 15 53.5t45 13.5v59z" />
    <glyph glyph-name="quoteright" unicode="&#x2019;" horiz-adv-x="232" 
d="M48 489h25q39 0 61.5 10t33 28t13.5 42t3 63v118h-126v-135h50q0 -39 -14.5 -53t-45.5 -14v-59z" />
    <glyph glyph-name="quotedblleft" unicode="&#x201c;" horiz-adv-x="424" 
d="M377 756h-25q-39 0 -61.5 -10t-33 -28t-13.5 -41.5t-3 -63.5v-118h126v135h-50q0 40 15 53.5t45 13.5v59zM184 756h-25q-39 0 -61.5 -10t-33 -28t-13.5 -41.5t-3 -63.5v-118h126v135h-50q0 40 15 53.5t45 13.5v59z" />
    <glyph glyph-name="quotedblright" unicode="&#x201d;" horiz-adv-x="424" 
d="M48 489h25q39 0 61.5 10t33 28t13.5 42t3 63v118h-126v-135h50q0 -39 -14.5 -53t-45.5 -14v-59zM241 489h25q39 0 61.5 10t33 28t13.5 42t3 63v118h-126v-135h50q0 -39 -14.5 -53t-45.5 -14v-59z" />
    <glyph glyph-name="bullet" unicode="&#x2022;" horiz-adv-x="520" 
d="M448 375q0 38 -14.5 72.5t-40.5 60.5t-60.5 40.5t-72.5 14.5t-72 -14t-60 -40t-40.5 -60.5t-14.5 -73.5t14.5 -73t40.5 -60t60 -40t72 -14t72.5 14.5t60.5 40.5t40.5 60t14.5 72z" />
    <glyph glyph-name="endash" unicode="&#x2013;" horiz-adv-x="500" 
d="M0 324v-96h500v96h-500z" />
    <glyph glyph-name="emdash" unicode="&#x2014;" horiz-adv-x="1000" 
d="M0 324v-96h1000v96h-1000z" />
    <glyph glyph-name="tilde" unicode="&#x2dc;" horiz-adv-x="537" 
d="M400 704q-11 -19 -24.5 -32t-31.5 -13q-13 0 -28.5 6.5t-38.5 19.5q-30 16 -49 23.5t-38 7.5q-39 0 -66 -23t-49 -62l64 -35q11 21 22.5 31.5t31.5 10.5q19 0 64 -24q28 -15 48 -23t41 -8q39 0 66 23t50 64z" />
    <glyph glyph-name="trademark" unicode="&#x2122;" horiz-adv-x="1000" 
d="M929 750h-142l-91 -239l-91 239h-142v-404h88v326h2l117 -326h52l117 326h2v-326h88v404zM414 750h-343v-78h123v-326h97v326h123v78z" />
    <glyph glyph-name="scaron" unicode="&#x161;" horiz-adv-x="557" 
d="M279 584l178 108l-25 50l-153 -63l-154 63l-24 -50zM507 382q0 52 -19.5 83t-52 45t-67.5 17.5t-87 3.5q-63 0 -102 -3.5t-70.5 -17t-49 -44t-17.5 -82.5q0 -53 9 -83.5t32.5 -47.5t66.5 -24t120 -8q48 -1 74 -5.5t38 -13t15 -20t3 -32.5q0 -47 -25 -58.5t-94 -11.5
q-37 0 -58 3t-32.5 11.5t-16.5 24.5t-6 46h-126q0 -62 16.5 -97.5t47 -51t69 -19t106.5 -3.5q59 0 100.5 5t74.5 21t51.5 47.5t18.5 82.5q0 57 -15.5 90.5t-43 49t-60 20t-88.5 6.5l-27 1q-46 2 -68.5 4.5t-35 7.5t-16.5 16t-4 31q0 47 25.5 58t87.5 11q59 0 79.5 -10
t20.5 -53h126z" />
    <glyph glyph-name="guilsinglright" unicode="&#x203a;" horiz-adv-x="325" 
d="M142 539l-85 -48l107 -216l-113 -211l80 -51l143 262z" />
    <glyph glyph-name="oe" unicode="&#x153;" horiz-adv-x="931" 
d="M285 435q45 0 67 -4.5t33.5 -20.5t15 -49t3.5 -99q0 -61 -4 -93t-15.5 -49.5t-34.5 -23.5t-65 -6q-41 0 -63.5 6.5t-34.5 24t-16.5 50t-4.5 91.5q0 64 3.5 96.5t15 49t34 22t66.5 5.5zM40 262q0 -82 9.5 -131.5t35 -79.5t74 -43.5t129.5 -13.5q36 0 59.5 1.5t46.5 8.5
t42 22.5t31 42.5h3q10 -25 28 -40.5t41.5 -23t48 -9.5t58.5 -2q67 0 108.5 4.5t72.5 21t47.5 52t16.5 95.5h-126q0 -52 -27 -64.5t-92 -12.5q-42 0 -65.5 7.5t-34.5 24t-13.5 42t-2.5 75.5h361q0 93 -8.5 147t-33.5 86t-72.5 45.5t-130.5 13.5q-28 0 -53 -2t-49 -9t-44 -22
t-30 -39h-2q-8 25 -29 40.5t-48 22t-50.5 8t-52.5 1.5q-87 0 -137.5 -16.5t-74 -49.5t-30 -79t-6.5 -124zM530 319q0 40 3.5 60.5t14 33t33.5 17.5t65 5q43 0 64.5 -3t33.5 -14.5t16.5 -33.5t4.5 -65h-235z" />
    <glyph glyph-name="Ydieresis" unicode="&#x178;" horiz-adv-x="670" 
d="M184 920v-88h99v88h-99zM388 920v-88h99v88h-99zM681 750h-166l-181 -320h-3l-178 320h-164l271 -462v-288h144v288z" />
    <glyph glyph-name="exclamdown" unicode="&#xa1;" horiz-adv-x="309" 
d="M217 525h-126v-137h126v137zM83 -225h142l-8 499h-126z" />
    <glyph glyph-name="cent" unicode="&#xa2;" 
d="M320 174q-53 7 -67 45t-14 125q0 41 2 68t9.5 50t24.5 38t45 20v-346zM390 78q59 1 98 13t62 35.5t33 62t10 95.5h-126q0 -62 -14.5 -83.5t-62.5 -26.5v346q46 -9 60.5 -26.5t16.5 -68.5h126q-2 103 -51 146.5t-152 44.5v68h-70v-68q-69 -1 -111 -20.5t-62.5 -54
t-27 -81.5t-6.5 -116q0 -67 7 -113.5t28 -80.5t63 -53t109 -19v-84h70v84z" />
    <glyph glyph-name="sterling" unicode="&#xa3;" 
d="M484 392h-201v136q0 37 6.5 59t20.5 33t37.5 14.5t63.5 3.5q41 0 65 -4.5t37 -14.5t17.5 -27t4.5 -46v-32h136v32q0 73 -17 115.5t-50.5 62.5t-80.5 26t-124 6q-75 0 -122 -11t-75.5 -37.5t-41.5 -73.5t-13 -122v-120h-98v-109h98v-55q-2 -49 -17.5 -77.5t-59.5 -32.5
v-118h608v121l-450 -6v3q37 20 46 45.5t9 77.5v42h201v109z" />
    <glyph glyph-name="currency" unicode="&#xa4;" 
d="M522 248v1q14 25 23 51.5t9 63.5q-1 27 -7.5 46t-16.5 38q-4 6 -5 9l80 79l-68 68l-79 -78q-16 12 -43 19.5t-59 8.5q-68 0 -108 -30l-78 78l-69 -69l79 -77q-30 -29 -30 -102q0 -30 7.5 -56t24.5 -47l-78 -79l67 -67l80 80q19 -15 45.5 -23t53.5 -10q31 0 50.5 6.5
t41.5 18.5l12 6l77 -77l68 65zM246 348q0 46 30 78t76 32t76 -32t30 -78q0 -36 -27 -68t-79 -32q-41 0 -72 28.5t-34 71.5z" />
    <glyph glyph-name="yen" unicode="&#xa5;" 
d="M558 536l125 214h-158l-173 -320h-3l-171 320h-156l121 -214h-90v-109h149l51 -86h-200v-109h228v-232h136v232h235v109h-207l52 86h155v109h-94z" />
    <glyph glyph-name="brokenbar" unicode="&#xa6;" horiz-adv-x="280" 
d="M188 675h-96v-349h96v349zM188 -175v350h-96v-350h96z" />
    <glyph glyph-name="section" unicode="&#xa7;" 
d="M431 340q34 -8 52.5 -14.5t27.5 -15t12 -21t3 -35.5q0 -41 -12 -66t-45 -25q-8 0 -19 2.5t-27 5.5l-7 2l-151 35q-52 12 -68 26.5t-16 58.5q0 41 12.5 65.5t49.5 24.5q10 0 25.5 -3t30.5 -7l3 -1zM67 1v-16q0 -75 17.5 -119t52.5 -65t84.5 -27.5t132.5 -6.5t130.5 4.5
t85.5 23.5t58.5 62t20.5 117q0 60 -12.5 95.5t-55.5 49.5v2q22 7 36 23.5t21.5 38.5t10.5 45.5t3 49.5q0 45 -10.5 72.5t-31 43.5t-46.5 24.5t-75 19.5q-6 1 -9 2l-167 38l-4 1q-60 14 -77.5 28t-17.5 61q0 22 4.5 35t18.5 20.5t41.5 11t75.5 3.5q49 0 75 -3.5t39.5 -13.5
t18.5 -29t6 -57h130v28q0 68 -18 107.5t-52 58t-79 23t-120 4.5q-76 0 -124.5 -5.5t-82.5 -24t-51.5 -56.5t-17.5 -102q0 -56 10.5 -91t44.5 -55q-26 -6 -42.5 -20t-24.5 -33.5t-10.5 -41t-2.5 -49.5q0 -44 6 -72t20.5 -45.5t40 -28.5t68.5 -20l246 -54q46 -10 62.5 -25
t16.5 -59q0 -28 -6.5 -45t-23 -26.5t-47.5 -13.5t-82 -4q-58 0 -89 5t-45 17.5t-17.5 31.5t-5.5 62h-130z" />
    <glyph glyph-name="dieresis" unicode="&#xa8;" horiz-adv-x="453" 
d="M75 695v-88h99v88h-99zM279 695v-88h99v88h-99z" />
    <glyph glyph-name="copyright" unicode="&#xa9;" horiz-adv-x="790" 
d="M395 -6q77 0 147 29.5t122.5 82t82 122t29.5 147.5t-29.5 147.5t-82.5 122t-122.5 82t-146.5 29.5t-147 -29.5t-122.5 -82t-82 -122t-29.5 -147.5q0 -77 29.5 -147t82 -122.5t122.5 -82t147 -29.5zM395 66q-63 0 -120 24t-99.5 66.5t-66.5 99t-24 119.5t24 119.5t67 99.5
t99.5 66.5t119.5 23.5q62 0 118.5 -24t99.5 -66.5t67 -99t24 -119.5t-24 -119.5t-67 -99t-99.5 -66.5t-118.5 -24zM503 307q-2 -34 -29 -56t-63 -22q-57 0 -91.5 46.5t-34.5 104.5q0 61 32.5 105t90.5 44q37 0 63 -20t32 -55h85q-11 67 -60 106t-119 39q-96 0 -152 -62
t-56 -159q0 -46 15 -86t42.5 -70t66.5 -46.5t86 -16.5q69 0 119.5 40t57.5 108h-85z" />
    <glyph glyph-name="ordfeminine" unicode="&#xaa;" horiz-adv-x="440" 
d="M278 435h84v212q0 36 -10 58t-29 33t-45 14.5t-64 3.5q-36 0 -58.5 -2t-42 -11t-31.5 -30t-12 -56h86q0 29 14 36.5t44 7.5q39 0 50.5 -13.5t11.5 -45.5v-40h-2q-10 18 -34 23t-59 5q-61 0 -91.5 -21t-30.5 -78q0 -58 29.5 -79t90.5 -21q39 0 61.5 6t37.5 31l2 -2z
M209 486q-37 0 -50.5 8.5t-13.5 41.5q0 26 15 32.5t48 6.5q37 0 53 -7.5t16 -33.5q0 -30 -16 -39t-52 -9z" />
    <glyph glyph-name="guillemotleft" unicode="&#xab;" horiz-adv-x="529" 
d="M182 539l-131 -264l142 -262l81 51l-113 211l107 216zM387 539l-132 -264l143 -262l80 51l-113 211l107 216z" />
    <glyph glyph-name="logicalnot" unicode="&#xac;" horiz-adv-x="584" 
d="M438 121h96v308h-484v-96h388v-212z" />
    <glyph glyph-name="minus" unicode="&#xad;" horiz-adv-x="584" 
d="M50 235h484v96h-484v-96z" />
    <glyph glyph-name="minus" unicode="&#x2212;" horiz-adv-x="584" 
d="M50 235h484v96h-484v-96z" />
    <glyph glyph-name="registered" unicode="&#xae;" horiz-adv-x="790" 
d="M395 -6q77 0 146.5 29.5t122.5 82.5t82.5 122.5t29.5 146.5q0 78 -29.5 147.5t-82.5 122t-122.5 82t-146.5 29.5q-78 0 -147.5 -29.5t-122 -82.5t-82 -122.5t-29.5 -146.5t29.5 -147t82 -122.5t122 -82t147.5 -29.5zM395 66q-63 0 -119.5 23.5t-99.5 66.5t-66.5 99.5
t-23.5 119.5t23.5 119.5t66.5 99.5t99.5 66.5t119.5 23.5t119.5 -23.5t99.5 -66.5t66.5 -99.5t23.5 -119.5t-24 -119.5t-66.5 -99.5t-99 -66.5t-119.5 -23.5zM485 342q57 4 84 32t27 91q0 36 -12.5 58.5t-34.5 34.5t-49.5 16.5t-62.5 4.5h-199v-411h80v174h81l92 -174h93z
M318 402v117h100q21 0 37 -1t30 -6.5t22.5 -16.5t8.5 -30q0 -37 -19.5 -50t-57.5 -13h-121z" />
    <glyph glyph-name="macron" unicode="&#xaf;" horiz-adv-x="426" 
d="M75 690v-76h276v76h-276z" />
    <glyph glyph-name="degree" unicode="&#xb0;" horiz-adv-x="400" 
d="M350 606q0 30 -11.5 57.5t-32.5 48.5t-48.5 32.5t-57.5 11.5t-57.5 -11.5t-48.5 -32.5t-32.5 -48t-11.5 -58q0 -30 11.5 -57.5t32.5 -48.5t48.5 -32.5t57.5 -11.5t57.5 11.5t48.5 32t32.5 48t11.5 58.5zM281 606q0 -34 -24 -57.5t-57 -23.5q-34 0 -57.5 23.5t-23.5 57.5
t23.5 57.5t56.5 23.5q34 0 58 -24t24 -57z" />
    <glyph glyph-name="plusminus" unicode="&#xb1;" horiz-adv-x="584" 
d="M244 525v-135h-194v-96h194v-135h96v135h194v96h-194v135h-96zM50 0h484v96h-484v-96z" />
    <glyph glyph-name="twosuperior" unicode="&#xb2;" horiz-adv-x="423" 
d="M373 384h-244v13q0 37 14 47.5t62 17.5q9 2 17 3q47 8 74 16t44 23t25 42t8 71q0 84 -39 111.5t-126 27.5q-61 0 -96 -10t-52 -30t-21.5 -48t-4.5 -76h95q0 34 3.5 52.5t12 26.5t22 10t41.5 2q41 0 55.5 -12.5t14.5 -53.5q0 -28 -3 -42.5t-10.5 -22t-19.5 -11t-36 -8.5
q-20 -3 -28 -5q-47 -8 -71 -14.5t-41.5 -19.5t-26 -38.5t-8.5 -67.5v-82h339v78z" />
    <glyph glyph-name="threesuperior" unicode="&#xb3;" horiz-adv-x="423" 
d="M174 495h65q35 0 46 -14t11 -49q0 -38 -17 -46t-77 -8q-30 0 -43.5 1.5t-20.5 8.5t-9 21t-2 45h-95q0 -55 10.5 -86t31 -45.5t49 -18.5t79.5 -4t83 4t56 16.5t37 39.5t13 72t-21 70t-67 29v2q43 4 62 32.5t19 72.5q0 42 -15.5 66.5t-41 35.5t-54.5 13.5t-71 2.5
q-48 0 -78 -5.5t-49.5 -21t-28.5 -44.5t-9 -78h95q0 47 12.5 59t57.5 12q54 0 70.5 -7t16.5 -33q0 -41 -9 -53t-41 -12h-65v-78z" />
    <glyph glyph-name="acute" unicode="&#xb4;" horiz-adv-x="371" 
d="M251 743l-176 -116l27 -52l194 86z" />
    <glyph glyph-name="mu" unicode="&#xb5;" horiz-adv-x="593" 
d="M531 0v525h-126v-303q0 -70 -28.5 -101t-99.5 -31q-57 0 -72.5 21.5t-15.5 82.5v331h-126v-752h126v225q23 -4 50 -4q61 0 103.5 19t62.5 68h4v-81h122z" />
    <glyph glyph-name="paragraph" unicode="&#xb6;" 
d="M693 -227v977h-418q-82 0 -133.5 -10.5t-83 -38t-46 -78.5t-14.5 -134q0 -82 15.5 -131.5t48 -74.5t82.5 -34t131 -9h113v-467h109v859h87v-859h109zM388 358h-121q-43 0 -67.5 4t-39 17t-20.5 38.5t-6 71.5q0 53 4.5 80.5t18.5 41t40 17.5t78 4h113v-274z" />
    <glyph glyph-name="periodcentered" unicode="&#xb7;" horiz-adv-x="352" 
d="M239 352h-126v-137h126v137z" />
    <glyph glyph-name="periodcentered" unicode="&#x2219;" horiz-adv-x="352" 
d="M239 352h-126v-137h126v137z" />
    <glyph glyph-name="cedilla" unicode="&#xb8;" horiz-adv-x="308" 
d="M189 -12l-114 -69l27 -46l131 52z" />
    <glyph glyph-name="onesuperior" unicode="&#xb9;" horiz-adv-x="423" 
d="M309 756h-118l-144 -136l50 -58l117 117v-373h95v450z" />
    <glyph glyph-name="ordmasculine" unicode="&#xba;" horiz-adv-x="440" 
d="M220 756q-50 0 -80.5 -8.5t-46 -27t-21 -47t-5.5 -76.5q0 -55 6.5 -86.5t23 -49t45.5 -24t78 -6.5q52 0 83 9.5t46 29t20 49.5t5 78q0 51 -7 81.5t-23.5 47.5t-45.5 23.5t-78 6.5zM220 691q25 0 38 -3.5t19.5 -13t8.5 -27t2 -50.5q0 -59 -10.5 -80t-57.5 -21
q-26 0 -38.5 3.5t-18.5 13t-8 28t-2 56.5q0 59 10.5 76.5t56.5 17.5z" />
    <glyph glyph-name="guillemotright" unicode="&#xbb;" horiz-adv-x="529" 
d="M347 539l-86 -48l107 -216l-113 -211l80 -51l143 262zM142 539l-85 -48l107 -216l-113 -211l80 -51l143 262z" />
    <glyph glyph-name="onequarter" unicode="&#xbc;" horiz-adv-x="1057" 
d="M955 450h-141l-199 -260v-98h245v-92h95v92h39v74h-39v284zM860 166h-167l164 212h3v-212zM816 750h-95l-474 -750h93zM316 750h-118l-144 -136l50 -58l117 117v-373h95v450z" />
    <glyph glyph-name="onehalf" unicode="&#xbd;" horiz-adv-x="1057" 
d="M801 750h-95l-474 -750h93zM301 750h-118l-144 -136l50 -58l117 117v-373h95v450zM1008 78h-244v13q0 37 14 47.5t62 17.5q9 2 17 3q47 8 74 16t44 23t25 42t8 71q0 84 -39 111.5t-126 27.5q-61 0 -96 -10t-52 -30t-21.5 -48t-4.5 -76h95q0 34 3.5 52.5t12 26.5t22 10
t41.5 2q41 0 55.5 -12.5t14.5 -53.5q0 -28 -3 -42.5t-10.5 -22t-19.5 -11t-36 -8.5q-20 -3 -28 -5q-47 -8 -71 -14.5t-41.5 -19.5t-26 -38.5t-8.5 -67.5v-82h339v78z" />
    <glyph glyph-name="threequarters" unicode="&#xbe;" horiz-adv-x="1057" 
d="M967 450h-141l-199 -260v-98h245v-92h95v92h39v74h-39v284zM872 166h-167l164 212h3v-212zM838 750h-95l-474 -750h93zM174 495h65q35 0 46 -14t11 -49q0 -38 -17 -46t-77 -8q-30 0 -43.5 1.5t-20.5 8.5t-9 21t-2 45h-95q0 -55 10.5 -86t31 -45.5t49 -18.5t79.5 -4t83 4
t56 16.5t37 39.5t13 72t-21 70t-67 29v2q43 4 62 32.5t19 72.5q0 42 -15.5 66.5t-41 35.5t-54.5 13.5t-71 2.5q-48 0 -78 -5.5t-49.5 -21t-28.5 -44.5t-9 -78h95q0 47 12.5 59t57.5 12q54 0 70.5 -7t16.5 -33q0 -41 -9 -53t-41 -12h-65v-78z" />
    <glyph glyph-name="questiondown" unicode="&#xbf;" horiz-adv-x="595" 
d="M268 283v-17q0 -40 -15 -55.5t-55 -31.5l-13 -5q-43 -18 -69 -35.5t-40 -39t-19 -50t-5 -71.5q0 -67 15.5 -109t45.5 -64t72 -30t103 -8q76 0 123 8t76.5 30t43 62t13.5 106v27h-126v-27q0 -34 -6 -54t-19.5 -30t-36.5 -13.5t-63 -3.5q-37 0 -58 3.5t-33.5 13.5t-18 31
t-5.5 58q0 51 17.5 70t64.5 38l24 10q37 16 58 29.5t32.5 30.5t15.5 42.5t4 67.5v17h-126zM394 525h-126v-137h126v137z" />
    <glyph glyph-name="Agrave" unicode="&#xc0;" horiz-adv-x="709" 
d="M309 968l-45 -82l194 -86l27 52zM517 142l49 -142h146l-254 750h-212l-249 -750h149l47 142h324zM485 251h-259l128 389h2z" />
    <glyph glyph-name="Aacute" unicode="&#xc1;" horiz-adv-x="709" 
d="M440 968l-176 -116l27 -52l194 86zM517 142l49 -142h146l-254 750h-212l-249 -750h149l47 142h324zM485 251h-259l128 389h2z" />
    <glyph glyph-name="Acircumflex" unicode="&#xc2;" horiz-adv-x="709" 
d="M355 967l-178 -108l24 -50l154 63l153 -63l25 50zM517 142l49 -142h146l-254 750h-212l-249 -750h149l47 142h324zM485 251h-259l128 389h2z" />
    <glyph glyph-name="Atilde" unicode="&#xc3;" horiz-adv-x="709" 
d="M486 929q-11 -19 -24.5 -32t-31.5 -13q-13 0 -28.5 6.5t-38.5 19.5q-30 16 -49 23.5t-38 7.5q-39 0 -66 -23t-49 -62l64 -35q11 21 22.5 31.5t31.5 10.5q19 0 64 -24q28 -15 48 -23t41 -8q39 0 66 23t50 64zM517 142l49 -142h146l-254 750h-212l-249 -750h149l47 142h324
zM485 251h-259l128 389h2z" />
    <glyph glyph-name="Adieresis" unicode="&#xc4;" horiz-adv-x="709" 
d="M203 920v-88h99v88h-99zM407 920v-88h99v88h-99zM517 142l49 -142h146l-254 750h-212l-249 -750h149l47 142h324zM485 251h-259l128 389h2z" />
    <glyph glyph-name="Aring" unicode="&#xc5;" horiz-adv-x="709" 
d="M263 901q0 -38 27 -65t65 -27t65 27t27 65t-27 65t-65 27t-65 -27t-27 -65zM308 901q0 19 14 33t33 14t33 -14t14 -33t-14 -33t-33 -14t-33 14t-14 33zM517 142l49 -142h146l-254 750h-212l-249 -750h149l47 142h324zM485 251h-259l128 389h2z" />
    <glyph glyph-name="AE" unicode="&#xc6;" horiz-adv-x="1059" 
d="M510 251h-254l179 376h75v-376zM510 0h509v123h-365v203h343v109h-343v192h365v123h-682l-354 -750h158l69 142h300v-142z" />
    <glyph glyph-name="Ccedilla" unicode="&#xc7;" horiz-adv-x="696" 
d="M383 -12l-114 -69l27 -46l131 52zM655 499v41q-4 79 -25 123.5t-58 64t-84.5 24t-136.5 4.5q-87 0 -145 -13t-95.5 -44.5t-55.5 -89t-18 -147.5v-172q1 -84 12.5 -138t40.5 -89.5t83 -52.5t139 -17q6 0 19 1h20q13 0 29 1q81 3 126 9.5t81 27t56 66t20 122.5v49h-144v-41
q0 -40 -9.5 -62.5t-29.5 -32.5t-48.5 -13t-80.5 -3q-59 0 -91.5 7t-49.5 26t-22.5 52t-6.5 94v166q0 58 6.5 90.5t24 50t49.5 24t90 6.5q53 0 81.5 -2.5t46 -11.5t25 -27.5t7.5 -51.5v-41h144z" />
    <glyph glyph-name="Egrave" unicode="&#xc8;" horiz-adv-x="619" 
d="M244 968l-45 -82l194 -86l27 52zM200 627h370v123h-514v-750h517v123h-373v199h351v118h-351v187z" />
    <glyph glyph-name="Eacute" unicode="&#xc9;" horiz-adv-x="619" 
d="M395 968l-176 -116l27 -52l194 86zM200 627h370v123h-514v-750h517v123h-373v199h351v118h-351v187z" />
    <glyph glyph-name="Ecircumflex" unicode="&#xca;" horiz-adv-x="619" 
d="M310 967l-178 -108l24 -50l154 63l153 -63l25 50zM200 627h370v123h-514v-750h517v123h-373v199h351v118h-351v187z" />
    <glyph glyph-name="Edieresis" unicode="&#xcb;" horiz-adv-x="619" 
d="M158 920v-88h99v88h-99zM362 920v-88h99v88h-99zM200 627h370v123h-514v-750h517v123h-373v199h351v118h-351v187z" />
    <glyph glyph-name="Igrave" unicode="&#xcc;" horiz-adv-x="276" 
d="M73 968l-45 -82l194 -86l27 52zM210 750h-144v-750h144v750z" />
    <glyph glyph-name="Iacute" unicode="&#xcd;" horiz-adv-x="276" 
d="M204 968l-176 -116l27 -52l194 86zM210 750h-144v-750h144v750z" />
    <glyph glyph-name="Icircumflex" unicode="&#xce;" horiz-adv-x="276" 
d="M138 967l-178 -108l24 -50l154 63l153 -63l25 50zM210 750h-144v-750h144v750z" />
    <glyph glyph-name="Idieresis" unicode="&#xcf;" horiz-adv-x="276" 
d="M-33 920v-88h99v88h-99zM171 920v-88h99v88h-99zM210 750h-144v-750h144v750z" />
    <glyph glyph-name="Eth" unicode="&#xd0;" horiz-adv-x="754" 
d="M206 627h214q85 0 118 -32t33 -124v-177q0 -33 -6.5 -63.5t-21.5 -54.5t-39.5 -38.5t-59.5 -14.5h-238v208h175v109h-175v187zM62 440h-91v-109h91v-331h382q82 0 136 23t83 63.5t40.5 91.5t11.5 116v177q0 152 -69 215.5t-226 63.5h-358v-310z" />
    <glyph glyph-name="Ntilde" unicode="&#xd1;" horiz-adv-x="827" 
d="M545 929q-11 -19 -24.5 -32t-31.5 -13q-13 0 -28.5 6.5t-38.5 19.5q-30 16 -49 23.5t-38 7.5q-39 0 -66 -23t-49 -62l64 -35q11 21 22.5 31.5t31.5 10.5q19 0 64 -24q28 -15 48 -23t41 -8q39 0 66 23t50 64zM629 123h-4l-321 627h-238v-750h144l-12 627h5l319 -627h239
v750h-144z" />
    <glyph glyph-name="Ograve" unicode="&#xd2;" horiz-adv-x="715" 
d="M292 968l-45 -82l194 -86l27 52zM356 756q-95 0 -153.5 -10.5t-95 -39.5t-52.5 -82.5t-16 -141.5v-202q0 -93 17 -149t53.5 -85.5t95 -40.5t151.5 -11q91 0 149.5 11.5t96.5 42t56 86.5t18 146v202q0 89 -19.5 143.5t-58 82.5t-96 38t-146.5 10zM356 633q53 0 84 -4
t51.5 -18.5t30.5 -45t10 -83.5v-202q0 -55 -9 -87t-29 -48.5t-52.5 -22t-85.5 -5.5q-59 0 -91 5t-50 21t-25 47.5t-7 89.5v202q1 49 7 76.5t23 44t50.5 23.5t92.5 7z" />
    <glyph glyph-name="Oacute" unicode="&#xd3;" horiz-adv-x="715" 
d="M423 968l-176 -116l27 -52l194 86zM356 756q-95 0 -153.5 -10.5t-95 -39.5t-52.5 -82.5t-16 -141.5v-202q0 -93 17 -149t53.5 -85.5t95 -40.5t151.5 -11q91 0 149.5 11.5t96.5 42t56 86.5t18 146v202q0 89 -19.5 143.5t-58 82.5t-96 38t-146.5 10zM356 633q53 0 84 -4
t51.5 -18.5t30.5 -45t10 -83.5v-202q0 -55 -9 -87t-29 -48.5t-52.5 -22t-85.5 -5.5q-59 0 -91 5t-50 21t-25 47.5t-7 89.5v202q1 49 7 76.5t23 44t50.5 23.5t92.5 7z" />
    <glyph glyph-name="Ocircumflex" unicode="&#xd4;" horiz-adv-x="715" 
d="M358 967l-178 -108l24 -50l154 63l153 -63l25 50zM356 756q-95 0 -153.5 -10.5t-95 -39.5t-52.5 -82.5t-16 -141.5v-202q0 -93 17 -149t53.5 -85.5t95 -40.5t151.5 -11q91 0 149.5 11.5t96.5 42t56 86.5t18 146v202q0 89 -19.5 143.5t-58 82.5t-96 38t-146.5 10zM356 633
q53 0 84 -4t51.5 -18.5t30.5 -45t10 -83.5v-202q0 -55 -9 -87t-29 -48.5t-52.5 -22t-85.5 -5.5q-59 0 -91 5t-50 21t-25 47.5t-7 89.5v202q1 49 7 76.5t23 44t50.5 23.5t92.5 7z" />
    <glyph glyph-name="Otilde" unicode="&#xd5;" horiz-adv-x="715" 
d="M489 929q-11 -19 -24.5 -32t-31.5 -13q-13 0 -28.5 6.5t-38.5 19.5q-30 16 -49 23.5t-38 7.5q-39 0 -66 -23t-49 -62l64 -35q11 21 22.5 31.5t31.5 10.5q19 0 64 -24q28 -15 48 -23t41 -8q39 0 66 23t50 64zM356 756q-95 0 -153.5 -10.5t-95 -39.5t-52.5 -82.5
t-16 -141.5v-202q0 -93 17 -149t53.5 -85.5t95 -40.5t151.5 -11q91 0 149.5 11.5t96.5 42t56 86.5t18 146v202q0 89 -19.5 143.5t-58 82.5t-96 38t-146.5 10zM356 633q53 0 84 -4t51.5 -18.5t30.5 -45t10 -83.5v-202q0 -55 -9 -87t-29 -48.5t-52.5 -22t-85.5 -5.5
q-59 0 -91 5t-50 21t-25 47.5t-7 89.5v202q1 49 7 76.5t23 44t50.5 23.5t92.5 7z" />
    <glyph glyph-name="Odieresis" unicode="&#xd6;" horiz-adv-x="715" 
d="M206 920v-88h99v88h-99zM410 920v-88h99v88h-99zM356 756q-95 0 -153.5 -10.5t-95 -39.5t-52.5 -82.5t-16 -141.5v-202q0 -93 17 -149t53.5 -85.5t95 -40.5t151.5 -11q91 0 149.5 11.5t96.5 42t56 86.5t18 146v202q0 89 -19.5 143.5t-58 82.5t-96 38t-146.5 10zM356 633
q53 0 84 -4t51.5 -18.5t30.5 -45t10 -83.5v-202q0 -55 -9 -87t-29 -48.5t-52.5 -22t-85.5 -5.5q-59 0 -91 5t-50 21t-25 47.5t-7 89.5v202q1 49 7 76.5t23 44t50.5 23.5t92.5 7z" />
    <glyph glyph-name="multiply" unicode="&#xd7;" horiz-adv-x="584" 
d="M291 351l-173 174l-68 -69l173 -173l-173 -171l69 -70l172 173l175 -173l68 66l-175 175l175 175l-68 67z" />
    <glyph glyph-name="Oslash" unicode="&#xd8;" horiz-adv-x="754" 
d="M754 774l-102 -91q-25 26 -56.5 41t-67 22t-68 8.5t-80.5 1.5q-122 0 -190.5 -20.5t-99 -63.5t-38 -105t-7.5 -180q0 -44 0.5 -74.5t2 -66.5t4.5 -64.5t9 -43.5l-61 -55v-109l103 91q24 -26 51 -40.5t59.5 -21t67.5 -8t99 -1.5q115 0 180 18t97.5 61t42.5 114.5t10 199.5
q0 102 -3 145.5t-13 75.5l60 53v113zM566 491v-114q0 -95 -4.5 -141t-22 -72.5t-53.5 -36.5t-106 -10q-33 0 -57.5 1t-48 5t-41 13.5t-22.5 24.5zM189 254v207q0 54 7.5 85.5t26.5 50.5t56.5 27.5t100.5 8.5q68 0 105.5 -8t59.5 -38z" />
    <glyph glyph-name="Ugrave" unicode="&#xd9;" horiz-adv-x="754" 
d="M312 968l-45 -82l194 -86l27 52zM545 750v-533q0 -31 -8 -50t-26.5 -30t-50.5 -15.5t-84 -4.5q-53 0 -85.5 5t-50 16t-24.5 30t-7 49v533h-144v-533q0 -76 23 -121.5t64 -67t93 -28t131 -6.5q81 0 134 6.5t93.5 28t63 67t22.5 121.5v533h-144z" />
    <glyph glyph-name="Uacute" unicode="&#xda;" horiz-adv-x="754" 
d="M443 968l-176 -116l27 -52l194 86zM545 750v-533q0 -31 -8 -50t-26.5 -30t-50.5 -15.5t-84 -4.5q-53 0 -85.5 5t-50 16t-24.5 30t-7 49v533h-144v-533q0 -76 23 -121.5t64 -67t93 -28t131 -6.5q81 0 134 6.5t93.5 28t63 67t22.5 121.5v533h-144z" />
    <glyph glyph-name="Ucircumflex" unicode="&#xdb;" horiz-adv-x="754" 
d="M377 967l-178 -108l24 -50l154 63l153 -63l25 50zM545 750v-533q0 -31 -8 -50t-26.5 -30t-50.5 -15.5t-84 -4.5q-53 0 -85.5 5t-50 16t-24.5 30t-7 49v533h-144v-533q0 -76 23 -121.5t64 -67t93 -28t131 -6.5q81 0 134 6.5t93.5 28t63 67t22.5 121.5v533h-144z" />
    <glyph glyph-name="Udieresis" unicode="&#xdc;" horiz-adv-x="754" 
d="M226 920v-88h99v88h-99zM430 920v-88h99v88h-99zM545 750v-533q0 -31 -8 -50t-26.5 -30t-50.5 -15.5t-84 -4.5q-53 0 -85.5 5t-50 16t-24.5 30t-7 49v533h-144v-533q0 -76 23 -121.5t64 -67t93 -28t131 -6.5q81 0 134 6.5t93.5 28t63 67t22.5 121.5v533h-144z" />
    <glyph glyph-name="Yacute" unicode="&#xdd;" horiz-adv-x="670" 
d="M419 968l-176 -116l27 -52l194 86zM681 750h-166l-181 -320h-3l-178 320h-164l271 -462v-288h144v288z" />
    <glyph glyph-name="Thorn" unicode="&#xde;" horiz-adv-x="686" 
d="M56 0h144v121h188q79 0 128 10t80 36t45 74.5t14 128.5t-13.5 129.5t-44 77.5t-80.5 39.5t-129 11.5h-188v122h-144v-750zM200 244v261h188q41 0 65.5 -6.5t36.5 -21.5t16.5 -40t4.5 -67q0 -41 -5 -64.5t-18 -37t-36.5 -18.5t-63.5 -6h-188z" />
    <glyph glyph-name="germandbls" unicode="&#xdf;" horiz-adv-x="606" 
d="M67 0h126v571q1 58 22 78.5t79 20.5q51 0 82.5 -15t31.5 -54q0 -55 -26.5 -76.5t-70.5 -21.5h-36v-86h36q76 0 100.5 -38t24.5 -131q0 -74 -22 -116t-78 -42q-21 0 -39.5 6.5t-44.5 19.5v-103q62 -19 112 -19q61 0 100 18.5t60.5 52t29.5 78.5t8 105q0 47 -6.5 84t-23 66
t-47.5 46t-79 20v3q58 8 89 41.5t31 92.5q0 48 -17.5 79t-48.5 47.5t-69 22.5t-85 6q-82 0 -129.5 -13t-71 -40.5t-31 -71.5t-7.5 -118v-513z" />
    <glyph glyph-name="agrave" unicode="&#xe0;" horiz-adv-x="589" 
d="M229 743l-45 -82l194 -86l27 52zM284 236q29 0 48 -1.5t34.5 -9t24.5 -23t9 -41.5q0 -51 -28 -66t-88 -15q-68 0 -91.5 14t-23.5 67q0 27 8.5 42.5t23.5 22.5t33.5 8.5t49.5 1.5zM400 0h126v329q0 66 -13.5 106t-41.5 60.5t-71 28t-112 7.5q-55 0 -92 -4t-67.5 -19
t-48 -48t-17.5 -88h126q0 46 24.5 59.5t74.5 13.5q39 0 61.5 -6t33.5 -19t14 -33.5t3 -56.5v-68h-4q-20 40 -57 50t-100 10q-102 0 -149 -35t-47 -126q0 -52 13.5 -85t39 -51t60.5 -24.5t83 -6.5q30 0 52.5 2t44.5 8.5t39.5 21.5t26.5 40h3z" />
    <glyph glyph-name="aacute" unicode="&#xe1;" horiz-adv-x="589" 
d="M380 743l-176 -116l27 -52l194 86zM284 236q29 0 48 -1.5t34.5 -9t24.5 -23t9 -41.5q0 -51 -28 -66t-88 -15q-68 0 -91.5 14t-23.5 67q0 27 8.5 42.5t23.5 22.5t33.5 8.5t49.5 1.5zM400 0h126v329q0 66 -13.5 106t-41.5 60.5t-71 28t-112 7.5q-55 0 -92 -4t-67.5 -19
t-48 -48t-17.5 -88h126q0 46 24.5 59.5t74.5 13.5q39 0 61.5 -6t33.5 -19t14 -33.5t3 -56.5v-68h-4q-20 40 -57 50t-100 10q-102 0 -149 -35t-47 -126q0 -52 13.5 -85t39 -51t60.5 -24.5t83 -6.5q30 0 52.5 2t44.5 8.5t39.5 21.5t26.5 40h3z" />
    <glyph glyph-name="acircumflex" unicode="&#xe2;" horiz-adv-x="589" 
d="M295 742l-178 -108l24 -50l154 63l153 -63l25 50zM284 236q29 0 48 -1.5t34.5 -9t24.5 -23t9 -41.5q0 -51 -28 -66t-88 -15q-68 0 -91.5 14t-23.5 67q0 27 8.5 42.5t23.5 22.5t33.5 8.5t49.5 1.5zM400 0h126v329q0 66 -13.5 106t-41.5 60.5t-71 28t-112 7.5q-55 0 -92 -4
t-67.5 -19t-48 -48t-17.5 -88h126q0 46 24.5 59.5t74.5 13.5q39 0 61.5 -6t33.5 -19t14 -33.5t3 -56.5v-68h-4q-20 40 -57 50t-100 10q-102 0 -149 -35t-47 -126q0 -52 13.5 -85t39 -51t60.5 -24.5t83 -6.5q30 0 52.5 2t44.5 8.5t39.5 21.5t26.5 40h3z" />
    <glyph glyph-name="atilde" unicode="&#xe3;" horiz-adv-x="589" 
d="M426 704q-11 -19 -24.5 -32t-31.5 -13q-13 0 -28.5 6.5t-38.5 19.5q-30 16 -49 23.5t-38 7.5q-39 0 -66 -23t-49 -62l64 -35q11 21 22.5 31.5t31.5 10.5q19 0 64 -24q28 -15 48 -23t41 -8q39 0 66 23t50 64zM284 236q29 0 48 -1.5t34.5 -9t24.5 -23t9 -41.5
q0 -51 -28 -66t-88 -15q-68 0 -91.5 14t-23.5 67q0 27 8.5 42.5t23.5 22.5t33.5 8.5t49.5 1.5zM400 0h126v329q0 66 -13.5 106t-41.5 60.5t-71 28t-112 7.5q-55 0 -92 -4t-67.5 -19t-48 -48t-17.5 -88h126q0 46 24.5 59.5t74.5 13.5q39 0 61.5 -6t33.5 -19t14 -33.5t3 -56.5
v-68h-4q-20 40 -57 50t-100 10q-102 0 -149 -35t-47 -126q0 -52 13.5 -85t39 -51t60.5 -24.5t83 -6.5q30 0 52.5 2t44.5 8.5t39.5 21.5t26.5 40h3z" />
    <glyph glyph-name="adieresis" unicode="&#xe4;" horiz-adv-x="589" 
d="M143 695v-88h99v88h-99zM347 695v-88h99v88h-99zM284 236q29 0 48 -1.5t34.5 -9t24.5 -23t9 -41.5q0 -51 -28 -66t-88 -15q-68 0 -91.5 14t-23.5 67q0 27 8.5 42.5t23.5 22.5t33.5 8.5t49.5 1.5zM400 0h126v329q0 66 -13.5 106t-41.5 60.5t-71 28t-112 7.5q-55 0 -92 -4
t-67.5 -19t-48 -48t-17.5 -88h126q0 46 24.5 59.5t74.5 13.5q39 0 61.5 -6t33.5 -19t14 -33.5t3 -56.5v-68h-4q-20 40 -57 50t-100 10q-102 0 -149 -35t-47 -126q0 -52 13.5 -85t39 -51t60.5 -24.5t83 -6.5q30 0 52.5 2t44.5 8.5t39.5 21.5t26.5 40h3z" />
    <glyph glyph-name="aring" unicode="&#xe5;" horiz-adv-x="589" 
d="M203 656q0 -38 27 -65t65 -27t65 27t27 65t-27 65t-65 27t-65 -27t-27 -65zM248 656q0 19 14 33t33 14t33 -14t14 -33t-14 -33t-33 -14t-33 14t-14 33zM284 236q29 0 48 -1.5t34.5 -9t24.5 -23t9 -41.5q0 -51 -28 -66t-88 -15q-68 0 -91.5 14t-23.5 67q0 27 8.5 42.5
t23.5 22.5t33.5 8.5t49.5 1.5zM400 0h126v329q0 66 -13.5 106t-41.5 60.5t-71 28t-112 7.5q-55 0 -92 -4t-67.5 -19t-48 -48t-17.5 -88h126q0 46 24.5 59.5t74.5 13.5q39 0 61.5 -6t33.5 -19t14 -33.5t3 -56.5v-68h-4q-20 40 -57 50t-100 10q-102 0 -149 -35t-47 -126
q0 -52 13.5 -85t39 -51t60.5 -24.5t83 -6.5q30 0 52.5 2t44.5 8.5t39.5 21.5t26.5 40h3z" />
    <glyph glyph-name="ae" unicode="&#xe6;" horiz-adv-x="920" 
d="M521 319q0 40 3.5 60.5t14 33t33.5 17.5t65 5q43 0 64.5 -3t33.5 -14.5t16.5 -33.5t4.5 -65h-235zM279 236q29 0 48 -1.5t34.5 -9t24.5 -23t9 -41.5q0 -51 -28 -66t-88 -15q-68 0 -91.5 14t-23.5 67q0 27 8.5 42.5t23.5 22.5t33.5 8.5t49.5 1.5zM395 260h-4
q-20 41 -57 51.5t-100 10.5q-102 0 -149 -35t-47 -126q0 -52 13.5 -85t39 -51t60.5 -24.5t83 -6.5q41 0 71.5 2t59 10t49.5 25t31 46h3q9 -27 29.5 -44t47 -25.5t53 -11t59.5 -2.5q67 0 108.5 4.5t72.5 21t47.5 52t16.5 95.5h-126q0 -52 -27 -64.5t-92 -12.5
q-42 0 -65.5 7.5t-34.5 24t-13.5 42t-2.5 75.5h361q0 93 -8.5 147t-33.5 86t-72.5 45.5t-130.5 13.5q-26 0 -50.5 -2t-49 -8.5t-44.5 -20.5t-28 -37h-3q-6 23 -25.5 37t-46 21t-52.5 8.5t-55 1.5q-55 0 -92 -4t-67.5 -19t-48 -48t-17.5 -88h126q0 46 24.5 59.5t74.5 13.5
q39 0 61.5 -6t33.5 -19t14 -33.5t3 -56.5v-70z" />
    <glyph glyph-name="ccedilla" unicode="&#xe7;" horiz-adv-x="551" 
d="M311 -12l-114 -69l27 -46l131 52zM394 200q0 -38 -3.5 -58t-14.5 -31.5t-33 -16t-62 -4.5q-41 0 -62.5 8t-31.5 27t-12.5 48t-2.5 89q0 62 2.5 90.5t12 47.5t31.5 27t63 8q68 0 90.5 -17.5t22.5 -76.5h126q0 61 -15 99t-44.5 57.5t-72.5 26.5t-107 7q-76 0 -123 -16
t-71 -48.5t-32.5 -80.5t-8.5 -124q0 -83 10 -133.5t35 -80t70.5 -42t119.5 -12.5q70 0 114.5 8.5t72 30.5t40 62t12.5 105h-126z" />
    <glyph glyph-name="egrave" unicode="&#xe8;" horiz-adv-x="570" 
d="M220 743l-45 -82l194 -86l27 52zM403 167q0 -52 -27 -64.5t-92 -12.5q-42 0 -65.5 7.5t-34.5 24t-13.5 42t-2.5 75.5h361q0 93 -8.5 147t-33.5 86t-72.5 45.5t-130.5 13.5q-79 0 -127 -15.5t-72.5 -48t-33.5 -81t-9 -125.5q0 -80 10 -130t36 -80t73 -43.5t123 -13.5
q67 0 108.5 4.5t72.5 21t47.5 52t16.5 95.5h-126zM168 319q0 40 3.5 60.5t14 33t33.5 17.5t65 5q43 0 64.5 -3t33.5 -14.5t16.5 -33.5t4.5 -65h-235z" />
    <glyph glyph-name="eacute" unicode="&#xe9;" horiz-adv-x="570" 
d="M371 743l-176 -116l27 -52l194 86zM403 167q0 -52 -27 -64.5t-92 -12.5q-42 0 -65.5 7.5t-34.5 24t-13.5 42t-2.5 75.5h361q0 93 -8.5 147t-33.5 86t-72.5 45.5t-130.5 13.5q-79 0 -127 -15.5t-72.5 -48t-33.5 -81t-9 -125.5q0 -80 10 -130t36 -80t73 -43.5t123 -13.5
q67 0 108.5 4.5t72.5 21t47.5 52t16.5 95.5h-126zM168 319q0 40 3.5 60.5t14 33t33.5 17.5t65 5q43 0 64.5 -3t33.5 -14.5t16.5 -33.5t4.5 -65h-235z" />
    <glyph glyph-name="ecircumflex" unicode="&#xea;" horiz-adv-x="570" 
d="M285 742l-178 -108l24 -50l154 63l153 -63l25 50zM403 167q0 -52 -27 -64.5t-92 -12.5q-42 0 -65.5 7.5t-34.5 24t-13.5 42t-2.5 75.5h361q0 93 -8.5 147t-33.5 86t-72.5 45.5t-130.5 13.5q-79 0 -127 -15.5t-72.5 -48t-33.5 -81t-9 -125.5q0 -80 10 -130t36 -80
t73 -43.5t123 -13.5q67 0 108.5 4.5t72.5 21t47.5 52t16.5 95.5h-126zM168 319q0 40 3.5 60.5t14 33t33.5 17.5t65 5q43 0 64.5 -3t33.5 -14.5t16.5 -33.5t4.5 -65h-235z" />
    <glyph glyph-name="edieresis" unicode="&#xeb;" horiz-adv-x="570" 
d="M134 695v-88h99v88h-99zM338 695v-88h99v88h-99zM403 167q0 -52 -27 -64.5t-92 -12.5q-42 0 -65.5 7.5t-34.5 24t-13.5 42t-2.5 75.5h361q0 93 -8.5 147t-33.5 86t-72.5 45.5t-130.5 13.5q-79 0 -127 -15.5t-72.5 -48t-33.5 -81t-9 -125.5q0 -80 10 -130t36 -80t73 -43.5
t123 -13.5q67 0 108.5 4.5t72.5 21t47.5 52t16.5 95.5h-126zM168 319q0 40 3.5 60.5t14 33t33.5 17.5t65 5q43 0 64.5 -3t33.5 -14.5t16.5 -33.5t4.5 -65h-235z" />
    <glyph glyph-name="igrave" unicode="&#xec;" horiz-adv-x="236" 
d="M53 743l-45 -82l194 -86l27 52zM181 525h-126v-525h126v525z" />
    <glyph glyph-name="iacute" unicode="&#xed;" horiz-adv-x="236" 
d="M184 743l-176 -116l27 -52l194 86zM181 525h-126v-525h126v525z" />
    <glyph glyph-name="icircumflex" unicode="&#xee;" horiz-adv-x="236" 
d="M118 742l-178 -108l24 -50l154 63l153 -63l25 50zM181 525h-126v-525h126v525z" />
    <glyph glyph-name="idieresis" unicode="&#xef;" horiz-adv-x="236" 
d="M-33 695v-88h99v88h-99zM171 695v-88h99v88h-99zM181 525h-126v-525h126v525z" />
    <glyph glyph-name="eth" unicode="&#xf0;" horiz-adv-x="582" 
d="M291 435q43 0 66.5 -7.5t35.5 -26t15.5 -49.5t3.5 -91q0 -59 -3.5 -89.5t-15 -48.5t-35.5 -25.5t-67 -7.5t-66.5 7.5t-35.5 25.5t-15.5 48.5t-3.5 89.5q0 60 3.5 91t15 49.5t35.5 26t67 7.5zM181 726q26 -16 45.5 -31t39.5 -34l-131 -40l56 -54l127 39q41 -51 64 -116
q-30 26 -65.5 34t-77.5 8q-64 0 -103 -18t-59 -52.5t-26.5 -82t-6.5 -117.5q0 -82 8.5 -131.5t33.5 -79.5t73.5 -43.5t131.5 -13.5t131.5 15t73 47.5t33 85t8.5 140.5q0 105 -27 191t-90 164l128 39l-54 55l-127 -39q-38 37 -87 64z" />
    <glyph glyph-name="ntilde" unicode="&#xf1;" horiz-adv-x="598" 
d="M431 704q-11 -19 -24.5 -32t-31.5 -13q-13 0 -28.5 6.5t-38.5 19.5q-30 16 -49 23.5t-38 7.5q-39 0 -66 -23t-49 -62l64 -35q11 21 22.5 31.5t31.5 10.5q19 0 64 -24q28 -15 48 -23t41 -8q39 0 66 23t50 64zM62 525v-525h126v289q0 78 24 112t101 34q59 0 78.5 -21.5
t19.5 -80.5v-333h126v346q0 99 -39.5 142t-140.5 43q-66 0 -106 -16t-59 -69h-4v79h-126z" />
    <glyph glyph-name="ograve" unicode="&#xf2;" horiz-adv-x="582" 
d="M226 743l-45 -82l194 -86l27 52zM291 531q-83 0 -131.5 -13.5t-73.5 -44t-33.5 -79.5t-8.5 -132q0 -82 8.5 -131.5t33.5 -79.5t73.5 -43.5t131.5 -13.5t131.5 13.5t73.5 43.5t33.5 79.5t8.5 131.5q0 83 -8.5 132t-33.5 79.5t-73.5 44t-131.5 13.5zM291 435
q43 0 66.5 -7.5t35.5 -26t15.5 -49.5t3.5 -91q0 -59 -3.5 -89.5t-15 -48.5t-35.5 -25.5t-67 -7.5t-66.5 7.5t-35.5 25.5t-15.5 48.5t-3.5 89.5q0 60 3.5 91t15 49.5t35.5 26t67 7.5z" />
    <glyph glyph-name="oacute" unicode="&#xf3;" horiz-adv-x="582" 
d="M357 743l-176 -116l27 -52l194 86zM291 531q-83 0 -131.5 -13.5t-73.5 -44t-33.5 -79.5t-8.5 -132q0 -82 8.5 -131.5t33.5 -79.5t73.5 -43.5t131.5 -13.5t131.5 13.5t73.5 43.5t33.5 79.5t8.5 131.5q0 83 -8.5 132t-33.5 79.5t-73.5 44t-131.5 13.5zM291 435
q43 0 66.5 -7.5t35.5 -26t15.5 -49.5t3.5 -91q0 -59 -3.5 -89.5t-15 -48.5t-35.5 -25.5t-67 -7.5t-66.5 7.5t-35.5 25.5t-15.5 48.5t-3.5 89.5q0 60 3.5 91t15 49.5t35.5 26t67 7.5z" />
    <glyph glyph-name="ocircumflex" unicode="&#xf4;" horiz-adv-x="582" 
d="M291 742l-178 -108l24 -50l154 63l153 -63l25 50zM291 531q-83 0 -131.5 -13.5t-73.5 -44t-33.5 -79.5t-8.5 -132q0 -82 8.5 -131.5t33.5 -79.5t73.5 -43.5t131.5 -13.5t131.5 13.5t73.5 43.5t33.5 79.5t8.5 131.5q0 83 -8.5 132t-33.5 79.5t-73.5 44t-131.5 13.5z
M291 435q43 0 66.5 -7.5t35.5 -26t15.5 -49.5t3.5 -91q0 -59 -3.5 -89.5t-15 -48.5t-35.5 -25.5t-67 -7.5t-66.5 7.5t-35.5 25.5t-15.5 48.5t-3.5 89.5q0 60 3.5 91t15 49.5t35.5 26t67 7.5z" />
    <glyph glyph-name="otilde" unicode="&#xf5;" horiz-adv-x="582" 
d="M423 704q-11 -19 -24.5 -32t-31.5 -13q-13 0 -28.5 6.5t-38.5 19.5q-30 16 -49 23.5t-38 7.5q-39 0 -66 -23t-49 -62l64 -35q11 21 22.5 31.5t31.5 10.5q19 0 64 -24q28 -15 48 -23t41 -8q39 0 66 23t50 64zM291 531q-83 0 -131.5 -13.5t-73.5 -44t-33.5 -79.5t-8.5 -132
q0 -82 8.5 -131.5t33.5 -79.5t73.5 -43.5t131.5 -13.5t131.5 13.5t73.5 43.5t33.5 79.5t8.5 131.5q0 83 -8.5 132t-33.5 79.5t-73.5 44t-131.5 13.5zM291 435q43 0 66.5 -7.5t35.5 -26t15.5 -49.5t3.5 -91q0 -59 -3.5 -89.5t-15 -48.5t-35.5 -25.5t-67 -7.5t-66.5 7.5
t-35.5 25.5t-15.5 48.5t-3.5 89.5q0 60 3.5 91t15 49.5t35.5 26t67 7.5z" />
    <glyph glyph-name="odieresis" unicode="&#xf6;" horiz-adv-x="582" 
d="M140 695v-88h99v88h-99zM344 695v-88h99v88h-99zM291 531q-83 0 -131.5 -13.5t-73.5 -44t-33.5 -79.5t-8.5 -132q0 -82 8.5 -131.5t33.5 -79.5t73.5 -43.5t131.5 -13.5t131.5 13.5t73.5 43.5t33.5 79.5t8.5 131.5q0 83 -8.5 132t-33.5 79.5t-73.5 44t-131.5 13.5z
M291 435q43 0 66.5 -7.5t35.5 -26t15.5 -49.5t3.5 -91q0 -59 -3.5 -89.5t-15 -48.5t-35.5 -25.5t-67 -7.5t-66.5 7.5t-35.5 25.5t-15.5 48.5t-3.5 89.5q0 60 3.5 91t15 49.5t35.5 26t67 7.5z" />
    <glyph glyph-name="divide" unicode="&#xf7;" horiz-adv-x="584" 
d="M50 235h484v96h-484v-96zM233 41h118v118h-118v-118zM233 407h118v118h-118v-118z" />
    <glyph glyph-name="oslash" unicode="&#xf8;" horiz-adv-x="582" 
d="M581 539l-83 -66q-16 20 -40 32t-51.5 17.5t-53.5 7t-61 1.5q-84 0 -132.5 -13t-73.5 -42.5t-33.5 -78.5t-8.5 -134q0 -53 2.5 -88t11.5 -68l-56 -49v-79l86 73q16 -20 40.5 -32t52.5 -17.5t54 -7t61 -1.5q88 0 137.5 18t71.5 54.5t27.5 86.5t5.5 145q0 46 -2 71t-9 47
l54 42v81zM412 275q0 -38 -2 -70.5t-9 -56.5q-10 -38 -32.5 -48t-70.5 -10t-76 7t-35 31l224 198zM171 196l-1 52q0 34 1.5 65.5t4.5 52.5q8 44 33 56.5t76 12.5q49 0 78.5 -7.5t35.5 -32.5z" />
    <glyph glyph-name="ugrave" unicode="&#xf9;" horiz-adv-x="593" 
d="M191 743l-45 -82l194 -86l27 52zM530 0v525h-126v-303q0 -70 -28.5 -101t-99.5 -31q-57 0 -72.5 21.5t-15.5 82.5v331h-126v-380q1 -82 46.5 -116.5t129.5 -34.5q61 0 103.5 19t62.5 68h4v-81h122z" />
    <glyph glyph-name="uacute" unicode="&#xfa;" horiz-adv-x="593" 
d="M374 743l-176 -116l27 -52l194 86zM530 0v525h-126v-303q0 -70 -28.5 -101t-99.5 -31q-57 0 -72.5 21.5t-15.5 82.5v331h-126v-380q1 -82 46.5 -116.5t129.5 -34.5q61 0 103.5 19t62.5 68h4v-81h122z" />
    <glyph glyph-name="ucircumflex" unicode="&#xfb;" horiz-adv-x="593" 
d="M277 742l-178 -108l24 -50l154 63l153 -63l25 50zM530 0v525h-126v-303q0 -70 -28.5 -101t-99.5 -31q-57 0 -72.5 21.5t-15.5 82.5v331h-126v-380q1 -82 46.5 -116.5t129.5 -34.5q61 0 103.5 19t62.5 68h4v-81h122z" />
    <glyph glyph-name="udieresis" unicode="&#xfc;" horiz-adv-x="593" 
d="M145 695v-88h99v88h-99zM349 695v-88h99v88h-99zM530 0v525h-126v-303q0 -70 -28.5 -101t-99.5 -31q-57 0 -72.5 21.5t-15.5 82.5v331h-126v-380q1 -82 46.5 -116.5t129.5 -34.5q61 0 103.5 19t62.5 68h4v-81h122z" />
    <glyph glyph-name="yacute" unicode="&#xfd;" horiz-adv-x="485" 
d="M320 743l-176 -116l27 -52l194 86zM490 525h-128l-102 -447h-2l-133 447h-130l173 -525h61l-1 -4q-5 -32 -10.5 -52t-16 -39t-28.5 -30.5t-46 -11.5q-6 0 -18 2l-9 1v-95q7 0 22 -2q21 -2 32 -2q53 0 87.5 15.5t55 43.5t32 62t25.5 91z" />
    <glyph glyph-name="thorn" unicode="&#xfe;" horiz-adv-x="596" 
d="M312 90q-78 0 -102 34t-24 123q0 59 3 90.5t14.5 53.5t37.5 33t71 11q40 0 63 -11.5t33.5 -34t13 -53.5t2.5 -89q0 -50 -5.5 -80.5t-17.5 -47t-33.5 -23t-55.5 -6.5zM60 -227h126v297h5q19 -44 60 -60t98 -16q66 0 106 17.5t60.5 49.5t27.5 76.5t7 109.5q0 74 -5 121
t-24 84.5t-60.5 58t-111.5 20.5q-61 0 -101 -18t-60 -67h-2v304h-126v-977z" />
    <glyph glyph-name="ydieresis" unicode="&#xff;" horiz-adv-x="485" 
d="M91 695v-88h99v88h-99zM295 695v-88h99v88h-99zM490 525h-128l-102 -447h-2l-133 447h-130l173 -525h61l-1 -4q-5 -32 -10.5 -52t-16 -39t-28.5 -30.5t-46 -11.5q-6 0 -18 2l-9 1v-95q7 0 22 -2q21 -2 32 -2q53 0 87.5 15.5t55 43.5t32 62t25.5 91z" />
    </font>
</defs>
</svg>
